<svg xmlns="http://www.w3.org/2000/svg" version="1.1" width="600px" height="600px" viewBox="0 0 200 200" style="overflow:hidden!important;"><g id="svga-group-wrapper"><g id="svga-group-backs-single"><path id="SvgjsPath10291" d="M0 0h200v200H0V0z" fill="#ecf0f1" stroke-width="none" opacity="1"></path></g><g id="svga-group-humanwrap-move" transform="matrix(1,0,0,1,0,-6)"><g id="svga-group-humanwrap"><g id="svga-group-hair-back-move" transform="matrix(1,0,0,1,0,0)"><g id="svga-group-hair-back"></g></g><g id="svga-group-humanbody-back"><path id="SvgjsPath10236" d="M166.5 181.1c-10.9-6.6-27.6-8.4-35-12.1-4.9-2.5-9.1-4.7-8.9-17.8s1.9-42.4 1.9-42.4H75.4s1.6 29.4 1.9 42.4-4.2 15.6-8.9 17.8c-7.4 3.5-24.1 5.4-35 12.1-10.8 6.6-10 18.9-10 18.9v19.7h153.3V200c-.1 0 .7-12.3-10.2-18.9z" fill="#f0c7b1" stroke-width="none" opacity="1"></path></g><g id="svga-group-chinshadow-single"><path id="SvgjsPath10232" d="M124.5 108.9H75.4c.1 1.8 1.6 29.7 1.9 42.3 0 1.4 0 2.7-.1 3.9 1.7 2.2 3.4 4.2 5.1 5.9 5.5 6.1 8.4 6.5 17.7 6.5s12.2-.4 17.7-6.5c1.6-1.7 3.3-3.7 5-5.9-.1-1.2-.1-2.5-.1-3.9.2-12.7 1.8-40.5 1.9-42.3z" fill="#d19271" stroke-width="none" opacity="0.65"></path></g><g id="svga-group-humanbody-front"><path id="SvgjsPath10237" d="M78.7 156.8c.5 4.8 1.7 9.4 3.1 13.9.8 2.3 1.6 4.6 2.6 6.9.8 2 1.7 4.2 3.1 5.9.3.4 1 0 .9-.5-.5-2.2-1.6-4.3-2.4-6.4-.9-2.2-1.7-4.4-2.5-6.6-1.5-4.4-2.8-8.9-4.1-13.3-.2-.4-.8-.3-.7.1zm41.3-1c-1.3 8.2-3.9 16.1-5.4 24.2-.1.4.4.5.6.2 3.1-7.7 4.1-16.1 5.1-24.3-.1-.2-.3-.2-.3-.1zm-25.8 11.9c-.9 3.6 1.9 8.6 6.2 7.6.5-.1.4-.8 0-1-1.4-.5-2.9-.9-3.9-2.1-1.1-1.2-1.5-2.9-1.4-4.5 0-.4-.8-.5-.9 0z" fill="#d19271" stroke-width="none" opacity="1"></path><path id="SvgjsPath10238" d="M177.3 219.7c-.1-6.6-.3-13.1-.3-19.7l-.3-.3c.1 0 .1 0 .2.1s.1.2.1.1v-1.4c0-.5-.1-.9-.1-1.4-.1-.9-.3-1.9-.5-2.8-.5-1.8-1.1-3.6-2-5.3-1.7-3.4-4.4-6.2-7.7-8.1-3.6-2.2-7.6-3.8-11.6-5.1-4-1.3-8.1-2.4-12.1-3.5-4-1.2-8.1-2.2-11.8-4.2-1.9-1-3.6-2.1-4.8-3.6-1.2-1.6-1.9-3.5-2.3-5.5-.8-4-.4-8.2-.3-12.4l.7-12.6 1.5-25.2.1-1.4h-1.4c-8.2 0-16.4 0-24.6.1l-24.6.3h-.9l.1.9c.8 11.9 1.6 23.8 2.1 35.7.1 3 .3 6 .2 8.9-.1 2.9-.4 5.9-1.6 8.6-.6 1.3-1.4 2.5-2.4 3.5s-2.3 1.8-3.6 2.4c-2.6 1.3-5.4 2.2-8.3 3-5.8 1.5-11.6 2.8-17.3 4.7-2.8.9-5.7 2-8.4 3.4-1.3.7-2.7 1.4-4 2.4-1.3.9-2.4 1.9-3.5 3.1-2.1 2.3-3.6 5.2-4.5 8.1-.5 1.5-.8 3-1 4.6-.1.8-.1 1.6-.1 2.4v2.3l-.2 17.9v1.3h1.4l38.3.2c12.8.1 25.5.1 38.3 0 12.8-.1 25.6-.1 38.3-.3 12.8-.2 25.6-.5 38.3-.7h.6v-.5zm-77.2-1.6H61.8l-37 .2-.1-16.6v-2.2c0-.7 0-1.4.1-2.1.1-1.4.4-2.8.8-4.2.8-2.7 2.1-5.3 3.9-7.5.9-1.1 2-2.1 3.1-2.9 1.1-.9 2.4-1.6 3.7-2.3 2.6-1.4 5.3-2.5 8.1-3.5 5.6-2 11.4-3.4 17.1-5.1 2.9-.8 5.8-1.7 8.5-3.1 1.3-.7 2.7-1.5 3.8-2.6 1.1-1.1 2-2.4 2.6-3.9 1.2-2.9 1.5-5.9 1.6-8.9 0-3-.1-6-.2-9l-1.3-34.8 23.5.4c7.7.1 15.4.1 23.1.1-.4 7.9-.8 15.9-1.1 23.8-.2 4.2-.2 8.4-.3 12.6 0 4.2-.2 8.5.8 12.8.5 2.1 1.3 4.2 2.8 6 1.4 1.7 3.4 2.9 5.3 3.8 3.9 1.9 8 2.8 12.1 3.8s8.2 2 12.2 3.3c4 1.3 7.9 2.8 11.5 5 3.2 1.9 5.8 4.7 7.5 8 .9 1.6 1.5 3.4 1.9 5.2.2.9.4 1.8.4 2.7.1.5.1.9.1 1.4V200l-.3 19c-12.6-.2-25.1-.5-37.7-.7-12.7-.1-25.5-.1-38.2-.2z" fill="#c27b55" stroke-width="none" opacity="1"></path></g><g id="svga-group-clothes-single"><path id="SvgjsPath10104" d="M129.8 165.2c-1.6-4-5.9-16.6-5.9-16.6-1.3 3.6-4.1 12-9 16-4.3 3.6-13 11.4-14.8 13-1.8-1.6-10.5-9.4-14.8-13-4.9-4-7.6-12.2-8.9-15.8 0 0-4.4 12.4-6 16.5 0 0 6.3 26.5 8.6 31.5 0 0 .1-.1.2-.4.3 2.6.7 5.1 1.3 7.3 2.9 10.7 8.6 17.9 8.6 17.9h21.7s10.3-13.7 11.6-23.8c.2-1.9.4-3.9.4-5.8 2.8-9.3 7-26.8 7-26.8z" fill="#ffffff" stroke-width="none" opacity="1"></path><path id="SvgjsPath10105" d="M96 196.2s-5.3-10.6-5.9-13.8c0 0 11.2-12.1 20.3 1.1l-5.2 12.7s3.3 17.4 3.3 23.9H92.1s1.3-16.5 3.9-23.9z" fill="#222222" stroke-width="none" opacity="1"></path><path id="SvgjsPath10106" d="M110.8 183.2c-2.7-3.9-5.9-6.1-9.5-6.4-6.3-.5-11.4 5-11.6 5.2-.1.1-.2.3-.1.4.5 3 5.1 12.2 5.8 13.7-2.6 7.5-3.8 23.2-3.9 23.8 0 .1 0 1.3.1 1.4s.2.2.4.2h16.4c.3 0 .5-1.2.5-1.5 0-6.3-2.9-22-3.3-23.9l5.2-12.5c.1 0 .1-.2 0-.4zm-6.1 12.8c0 .1-.1.2 0 .3 0 .2 3.1 16.5 3.3 23.3H92.6c.2-2.9 1.6-16.7 3.9-23.2.1-.1 0-.3 0-.4-.1-.1-5.1-10-5.8-13.4.9-.9 5.5-5.1 10.6-4.7 3.2.2 6.1 2.1 8.6 5.7l-5.2 12.4z" fill="#184f58" stroke-width="none" opacity="1"></path><path id="SvgjsPath10107" d="M97.1 188.9c-.9 2.4 1.6 7 1.6 7 .5-4.1-.7-9.4-1.6-7zm6.4-1.6c-1.7.7-1.8 7.9-1.8 7.9 1.8-2.8 3.5-8.6 1.8-7.9zm-.8 14.9c0 1.1.2 5.5 1.4 4.1 1.2-1.4-1.2-7.8-1.2-7.8s-.2 2.6-.2 3.7zm-3.7 2.9c-.5 3.9 1.4 5.2 1.7 2.4.3-2.8-.3-9.2-.3-9.2s-.9 2.9-1.4 6.8zm-2.2-1.4c.7 1.4 1.4-3.3 1.2-5 0-.1-1.9 3.6-1.2 5z" fill="#000000" stroke-width="none" opacity="1"></path><path id="SvgjsPath10108" d="M71.3 157.1s-10.6 8-16.5 10.6l2.3 2.6s-22.3 5.2-26.9 6.7-6.7 3.6-6.7 3.6-1.7-1.3-4.2.2-3.6 39.4-3.6 39.4h72.6s-10.9-23.9-17.6-58.4c.1-.1.6-2.6.6-4.7zm112.9 63s-1.1-37.9-3.6-39.4-4.2-.2-4.2-.2-2.1-2.1-6.7-3.6-26.9-6.7-26.9-6.7l2.3-2.6c-5.9-2.5-16.5-10.6-16.5-10.6 0 2.1.6 4.6.6 4.6-6.7 34.5-17.6 58.4-17.6 58.4l72.6.1z" fill="#386e77" stroke-width="none" opacity="1"></path><path id="SvgjsPath10109" d="M184.1 198c-.3-3.7-.6-7.4-1.1-11-.3-1.9-.5-3.7-1.1-5.6-.1-.2-.2-.5-.4-.8-.1-.1-.2-.3-.4-.4l-.4-.2c-.4-.2-.9-.4-1.5-.5-.9-.2-1.8-.1-2.7.3-2.4-1.9-5.1-2.9-7.8-3.6-2.9-.8-5.8-1.4-8.6-2.1l-16.7-4 2-2.1.1-.1c.1-.2 0-.4-.2-.5-1.5-.6-2.9-1.5-4.2-2.3-1.4-.9-2.7-1.8-4.1-2.7-2.7-1.9-5.3-3.8-7.9-5.8-.1-.1-.3-.2-.4-.2l-1.2.3s-3-7.8-3.7-8.7c-.6 1.3-1.4 4.2-4 9.4-1.1 1.9-3 4.5-5.5 6.5-2.7 2.1-5.2 4.3-7.7 6.5-2.2 1.9-4.3 3.9-6.4 5.8-2.1-1.9-4.2-3.9-6.4-5.8-2.5-2.2-5.1-4.4-7.7-6.4-7.4-6.9-7.1-10-9.2-15-.3-.5-.5-.5-.5-.5l-3.8 7.9c-.2-.1-1.4 0-1.6.1-2.6 2-5.2 3.9-7.8 5.8-1.3.9-2.7 1.8-4.1 2.7-1.4.9-2.8 1.7-4.2 2.3 0 0-.1 0-.1.1-.2.1-.2.4 0 .5l2 2.1-16.7 4c-2.9.7-5.7 1.4-8.6 2.1-2.8.7-5.5 1.8-7.8 3.6-.9-.4-1.8-.5-2.7-.3-.5.1-1 .3-1.5.5-.1.1-.2.1-.4.2l-.4.4c-.2.3-.3.5-.4.8-.6 1.9-.9 3.7-1.1 5.6-.5 3.7-.8 7.4-1.1 11-.5 7.4-.9 14.7-1.2 22.1 0 .6.5 1.1 1.1 1.1 12.2 0 24.9.5 37.1.3l36.2.1c-.1-.4-.8-2.1-.9-2.4l-.3-.9-.7-1.8c-.4-1.2-.9-2.4-1.3-3.6-.8-2.4-1.7-4.8-2.5-7.2-1.2-3.5-2.2-7-3.3-10.5.9-1.6 1.9-3.2 3-4.7.8-1 1.6-1.9 2.4-2.8.4-.4.9-.8 1.4-1.2l1.5-1.2c1-.8 1.9-1.7 2.8-2.7.4-.5.9-1 1.2-1.5.2-.2.4-.5.6-.6.1-.1.3-.3.6-.4.9-.5 2.1-.9 3.3-1.2.6-.1 5.7-.1 6.3 0 1.2.3 2.3.6 3.3 1.2.2.1.4.3.6.4l.6.6 1.2 1.5c.9 1 1.8 1.8 2.8 2.7l1.5 1.2c.5.4.9.8 1.4 1.2.9.8 1.7 1.8 2.4 2.8 1.1 1.5 2.1 3.1 3 4.7-1.1 3.5-2.1 7-3.3 10.5-.8 2.4-1.6 4.8-2.5 7.2-.4 1.2-.9 2.4-1.3 3.6l-.7 1.8-.3.9c-.1.3-1 1.9-1.1 2.4l36.7-.7c12.2.2 24.5.4 36.7.3.6 0 1-.5 1-1.1-.4-7.3-.8-14.6-1.3-22zM16.9 219c.2-7 .4-14 .8-20.9.2-3.7.5-7.3.9-10.9.2-1.8.4-3.7.9-5.3.1-.2.1-.4.2-.5 0-.1.1-.1 0-.1 0 0 .1-.1.2-.1.4-.2.7-.4 1.1-.4.7-.2 1.6-.1 2.1.2.2.1.5.1.6 0 1.8 2.7 3.1 5.6 4 8.6.5 1.6.8 3.2 1 4.9.2 1.7.5 3.3.6 5l1.1 10.1c.4 3.1.8 6.3 1.3 9.4H16.9zm34.8.4-19.6-.3c.2-3.2.2-6.4.1-9.6-.1-3.4-.3-6.8-.7-10.3-.2-1.7-.4-3.4-.8-5.1-.3-1.7-.8-3.4-1.4-5.1-1.2-3.1-3-5.9-5.4-8.1 1-.9 2.2-1.7 3.5-2.3 1.3-.6 2.6-1.1 4.1-1.6 2.8-.8 5.7-1.6 8.5-2.3 5.7-1.4 11.5-2.9 17.2-4.1.6.6 1.2 1.1 2 1.6-.2.2-.5.3-.7.5-1.2.8-2.5 1.6-3.7 2.3-.3.2-.5.6-.4 1 1.5 3.8 3.1 7.6 4.7 11.4 1.6 3.8 3.3 7.5 5 11.2 1.8 3.7 3.6 7.4 5.5 11 1 1.8 1.9 3.6 3 5.4 1 1.7 2 3.3 3.1 4.9l-24-.5zm33.5-6.2c.5 1.2 1 2.4 1.5 3.5.3.6.5 1.2.8 1.7l.4.9c.2.3.2.6.4.8l-12.4-.2c-1.8-3.6-3.4-7.2-5-10.8L66 197.7l-5-11.2-4.8-10.6c2.3-1.5 4.5-3.2 6.6-4.9 1.1-.9 2.3-1.9 3.4-2.9s2.2-1.9 3.3-3c-2.4 1.7-4.8 3.4-7.3 5-.9.6-1.7 1.2-2.6 1.8-.5-.8-1.1-1.5-1.7-2.2-.7-.6-1.3-1.2-2.2-1.7l-.3-.3c1.4-.6 2.7-1.3 4-2 1.4-.8 2.8-1.7 4.2-2.5 2.3-1.5 4.6-3 6.8-4.6-.1 1-.3 1.9-.5 2.9v.3c.9 5 2 10 3.3 15 1.2 5 2.6 9.9 4.1 14.7s3.2 9.7 5 14.5c.9 2.5 1.9 4.8 2.9 7.2zm11.2-36.1c-1.3.4-2.5.8-3.8 1.5-.3.2-.6.4-.9.7-.2.3-.4.5-.6.8-.4.5-.8 1-1.1 1.5-.8.9-1.6 1.8-2.5 2.6-.4.4-.9.9-1.4 1.3-.5.4-1 .9-1.4 1.4-.9 1-1.6 2-2.4 3.1-.9 1.4-1.8 2.9-2.5 4.3-.3-1-.6-2.1-.9-3.1-1.4-4.9-2.7-9.8-3.9-14.7-1.2-4.7-2.2-9.4-3.2-14.1.1-.3.1-.6.2-1 .2-1.4 1.8-4.9 2.8-7.6l1.5-4.7c0 .1.6 2.1 1.5 5.2 1.4 3.6 4.6 8.6 7.2 10.9 2.5 2.2 4.7 4.6 7.2 6.9l5.5 4.9c-.5-.1-.9 0-1.3.1zm21.3 12.8c-.7-1.1-1.5-2.1-2.4-3.1-.4-.5-.9-.9-1.4-1.4-.5-.4-.9-.8-1.4-1.3-.9-.9-1.8-1.7-2.5-2.6-.4-.5-.7-.9-1.1-1.5-.2-.3-.4-.5-.6-.8-.3-.3-.6-.5-.9-.7-1.2-.7-2.5-1.1-3.8-1.5-.4-.1-.8-.2-1.3-.3l5.5-4.9c2.5-2.2 4.6-4.4 7.1-6.6 5-4.9 6.6-9.1 7.5-11.9 1.1-3.5 1.3-4.1 1.3-4.2 0 0 1.1 3.2 2.1 6.1.7 2 2.3 6.7 2.3 7-1 4.7-2 9.4-3.2 14.1-1.2 4.9-2.5 9.8-3.9 14.7-.3 1.1-.6 2.1-.9 3.1-.7-1.3-1.5-2.8-2.4-4.2zm-6 30.2c.2-.1.3-.5.4-.8l.4-.9c.3-.6.5-1.2.8-1.7.5-1.2 1-2.3 1.5-3.5 1-2.4 2-4.7 2.8-7.1 1.8-4.8 3.5-9.6 5-14.5s2.9-9.8 4.1-14.7c1.3-4.9 2.3-9.9 3.3-15v-.3c-.2-.9-.4-1.9-.5-2.9 2.2 1.6 4.5 3.1 6.8 4.6 1.4.9 2.8 1.7 4.2 2.5 1.3.7 2.6 1.4 3.9 2l-.3.3c-.8.5-1.5 1.1-2.1 1.7-.6.6-1.2 1.4-1.7 2.2-.9-.6-1.8-1.1-2.6-1.8-2.4-1.6-4.8-3.4-7.3-5l3.3 3c1.1 1 2.2 1.9 3.4 2.9 2.1 1.7 4.2 3.4 6.6 4.9l-4.8 10.6-5 11.2L129 209c-1.6 3.6-3.2 7.3-5 10.8l-12.3.3zm36.6-.7-24.2.5c1.1-1.6 2.2-3.2 3.1-4.9 1.1-1.8 2-3.6 3-5.4 1.9-3.6 3.7-7.3 5.5-11 1.7-3.7 3.4-7.4 5.1-11.2 1.6-3.8 3.2-7.5 4.7-11.4.1-.4 0-.8-.4-1-1.2-.7-2.5-1.5-3.7-2.3-.2-.2-.5-.3-.7-.5.8-.4 1.4-1 2-1.6 5.8 1.3 11.5 2.7 17.2 4.1 2.9.7 5.7 1.5 8.5 2.3 1.4.4 2.8.9 4.1 1.6 1.3.6 2.5 1.4 3.5 2.3-2.4 2.2-4.1 5.1-5.4 8.1-.7 1.6-1.1 3.4-1.4 5.1-.3 1.7-.6 3.4-.8 5.1-.4 3.4-.6 6.8-.7 10.3-.1 3.2-.1 6.4.1 9.6-6.4 0-12.9.1-19.5.3zm19.7-.3c.5-3.1.9-6.3 1.3-9.4l1.1-10.1c.2-1.7.4-3.4.6-5 .2-1.7.6-3.3 1.1-4.9.9-3 2.2-5.9 4-8.6.2.1.4.1.6 0 .5-.3 1.4-.4 2.1-.2.4.1.8.2 1.1.4.1 0 .2.1.2.1v.1c.1.1.1.3.2.5.5 1.6.7 3.5.9 5.3.4 3.6.6 7.3.9 10.9.4 7 .7 13.9.8 20.9-4.8-.1-9.8-.1-14.9 0z" fill="#184f58" stroke-width="none" opacity="1"></path></g><g id="svga-group-head" transform="matrix(1,0,0,1,0,0)"><g id="svga-group-ears-left-move" transform="matrix(1,0,0,1,0,1)"><g id="svga-group-ears-left" transform="matrix(0.9499998000000001,0,0,0.9499998000000001,2.8670210124107314,4.989707306161492)"><path id="SvgjsPath10134" d="M61.3 90s-2.5-2.4-5.4-3.5-6.1.7-7.1 3.7c-1 2.9 1.3 15.1 5 19.5s6.2 4.8 8.7 2.5c2.5-2.3 7-10.8-1.2-22.2z" fill="#f0c7b1" stroke-width="none" opacity="1"></path><path id="SvgjsPath10135" d="M62.6 91.8c.4.6.8 1.3 1.2 1.9.4.6.7 1.4 1.1 2 .3.7.6 1.4.9 2.2.2.8.5 1.5.6 2.4.1.4.2.8.2 1.2l.1 1.2c0 1.7-.2 3.4-.7 4.9-.5 1.6-1.2 3-2.2 4.2-.2.3-.5.6-.8.8-.3.2-.6.5-.9.7-.6.4-1.3.7-2.1.8-.7.1-1.5 0-2.2-.3s-1.3-.7-1.8-1.2c-.6-.5-1.1-1-1.6-1.6s-.9-1.1-1.4-1.8c-1.7-2.6-2.6-5.7-3.4-8.7-.4-1.5-.8-3-1.1-4.6s-.6-3.2-.5-4.9c0-.4.1-.9.2-1.3.1-.2.1-.4.2-.6l.3-.6c.4-.7.9-1.3 1.5-1.8 1.2-1 2.6-1.4 4-1.2.7.1 1.4.3 2 .6.6.3 1.2.7 1.8 1.1 1.2.8 2.3 1.6 3.3 2.6l1.3 2zm-4.7-4.1c-.6-.3-1.2-.6-1.8-.8-.6-.2-1.2-.3-1.8-.3-1.2.1-2.3.6-3.3 1.4-.5.4-.9.9-1.2 1.5-.2.3-.3.6-.4.9-.1.3-.2.6-.2.9-.2 1.4-.1 3 .1 4.6.2 1.5.4 3.1.8 4.6.8 3 1.9 6 3.6 8.2.9 1.1 1.9 2.1 3 2.9s2.2 1.3 3.3 1.1c.5-.1 1.1-.3 1.6-.7.5-.4 1-.8 1.4-1.3.8-1 1.5-2.3 1.9-3.7.5-1.4.7-2.8.7-4.3s-.2-3-.4-4.5c-.6-3-2-5.8-3.7-8.2-1.3-.9-2.4-1.7-3.6-2.3z" fill="#e1ac8f" stroke-width="none" opacity="1"></path><path id="SvgjsPath10136" d="M52.6 89.6c3.3.6 5.4 6.1 6 9.8.1.1.1.2.2.3.4.6-.4 1.2-.8.6-.5-.8-1-1.6-1.8-1.9-1.4-.5-2.1 1.1-1.8 2.6.4 1.9 1.6 3 2.6 4.4.1.1 0 .3-.1.2-1.7-1-4.3-4.8-3.1-7.2.9-1.7 2.3-1.4 3.4-.4-.8-2.1-1.4-4.3-3-5.9-.5-.5-1.5-1.4-2.2-1.3-1.3.2-1.3 2.1-1.3 3.4-.1 1.7.1 3.4.4 5 0 .2-.2.2-.3.1-.7-2.4-2-10.4 1.8-9.7z" fill="#d19271" stroke-width="none" opacity="1"></path></g></g><g id="svga-group-ears-right-move" transform="matrix(1,0,0,1,0,1)"><g id="svga-group-ears-right" transform="matrix(0.9499998000000001,0,0,0.9499998000000001,7.128019616090398,4.994863462345123)"><path id="SvgjsPath10137" d="M138.7 90s2.5-2.4 5.4-3.5 6.1.7 7.1 3.7c1 2.9-1.3 15.1-5 19.5s-6.2 4.8-8.7 2.5c-2.5-2.3-7-10.8 1.2-22.2z" fill="#f0c7b1" stroke-width="none" opacity="1"></path><path id="SvgjsPath10138" d="M138.6 89.9c1.1-1 2.2-1.8 3.3-2.6.6-.4 1.2-.7 1.8-1.1.6-.3 1.3-.6 2-.6 1.4-.2 2.8.3 4 1.2.6.5 1.1 1.1 1.5 1.8l.3.6c.1.2.2.4.2.6.1.4.2.9.2 1.3.1 1.7-.2 3.3-.5 4.9s-.7 3.1-1.1 4.6c-.9 3-1.8 6-3.4 8.7-.4.7-.9 1.2-1.4 1.8-.5.6-1 1.1-1.6 1.6s-1.2.9-1.8 1.2c-.7.3-1.4.4-2.2.3-.7-.1-1.4-.4-2.1-.8-.3-.2-.6-.4-.9-.7-.3-.3-.6-.5-.8-.8-1-1.2-1.7-2.6-2.2-4.2s-.7-3.3-.7-4.9l.1-1.2c0-.4.1-.8.2-1.2.1-.8.4-1.6.6-2.4.3-.7.6-1.5.9-2.2.4-.7.7-1.4 1.1-2 .4-.6.8-1.3 1.2-1.9l1.3-2zm.1.1c-1.7 2.4-3 5.2-3.7 8.2-.3 1.5-.5 3-.4 4.5s.3 2.9.7 4.3 1.1 2.6 1.9 3.7c.4.5.8 1 1.4 1.3.5.4 1 .6 1.6.7 1.1.2 2.2-.3 3.3-1.1 1-.8 2.1-1.8 3-2.9 1.7-2.3 2.8-5.2 3.6-8.2.4-1.5.6-3.1.8-4.6s.3-3.1.1-4.6c0-.4-.1-.6-.2-.9-.1-.3-.3-.6-.4-.9-.3-.6-.7-1-1.2-1.5-.9-.8-2.1-1.3-3.3-1.4-.6 0-1.2.1-1.8.3-.6.2-1.2.5-1.8.8-1.4.6-2.5 1.4-3.6 2.3z" fill="#e1ac8f" stroke-width="none" opacity="1"></path><path id="SvgjsPath10139" d="M147.4 89.6c-3.3.6-5.4 6.1-6 9.8-.1.1-.1.2-.2.3-.4.6.4 1.2.8.6.5-.8 1-1.6 1.8-1.9 1.4-.5 2.1 1.1 1.8 2.6-.4 1.9-1.6 3-2.6 4.4-.1.1 0 .3.1.2 1.7-1 4.3-4.8 3.1-7.2-.9-1.7-2.3-1.4-3.4-.4.8-2.1 1.4-4.3 3-5.9.5-.5 1.5-1.4 2.2-1.3 1.3.2 1.3 2.1 1.3 3.4.1 1.7-.1 3.4-.4 5 0 .2.2.2.3.1.7-2.4 2-10.4-1.8-9.7z" fill="#d19271" stroke-width="none" opacity="1"></path></g></g><g id="svga-group-faceshape-wrap"><g id="svga-group-faceshape-single"><path id="SvgjsPath10218" d="M143.2 82v-.3c-1.3-29.9-20.7-46.4-43.2-46.4S58.1 51.8 56.9 81.7v.3c.1 9.4-.6 25.5 2 31.6 1.3 3.1 13.8 23.8 23.4 34.2 5.5 6.1 8.4 6.5 17.7 6.5 9.3 0 12.2-.4 17.7-6.5 9.6-10.4 22.1-31.1 23.4-34.2 2.6-6.1 1.9-22.2 2.1-31.6z" fill="#f0c7b1" stroke-width="none" opacity="1"></path><path id="SvgjsPath10219" d="M117.7 147.8c9.6-10.4 22.1-31.1 23.4-34.2 2.6-6.1 1.9-22.2 2.1-31.6v-.3c-1.3-29.9-20.7-46.4-43.2-46.4S58.1 51.8 56.9 81.7v.3c.1 9.4-.6 25.5 2 31.6 1.3 3.1 13.8 23.8 23.4 34.2 5.5 6.1 8.4 6.5 17.7 6.5s12.2-.4 17.7-6.5zm-30.3 1.4c-1.2-.9-2.3-2-3.4-3.2-2.3-2.4-4.4-6-6.5-8.6-4.2-5.3-8.1-10.8-11.9-16.3-.9-1.4-1.9-2.8-2.8-4.2-.5-.7-.9-1.4-1.3-2.1l-.6-1c-.2-.3-.4-.6-.5-1-.6-1.3-.9-2.9-1.2-4.5s-.5-3.3-.7-4.9c-.6-6.7-.7-13.5-.8-20.3 0-6.7 1.1-13.4 3.6-19.7.1-.4.3-.8.4-1.2l.6-1.1 1.1-2.2c.3-.8.8-1.4 1.3-2.2l1.3-2.1 1.5-2c.5-.6 1-1.3 1.6-1.9 1.2-1.2 2.2-2.4 3.5-3.4.6-.5 1.3-1.1 1.9-1.6l2-1.4 1-.7c.3-.2.7-.4 1.1-.6l2.1-1.2c.7-.4 1.5-.6 2.2-1 .8-.3 1.5-.7 2.3-.9 1.6-.5 3.1-1 4.7-1.3 6.3-1.4 12.9-1.5 19.2-.1l2.4.5 2.3.7c1.6.4 3 1.1 4.5 1.7.8.3 1.4.8 2.1 1.1.7.4 1.5.7 2.1 1.2 1.3.9 2.8 1.7 4 2.8 5.1 4.1 9.3 9.5 12 15.6 2.7 6.1 4.1 12.9 4.4 19.6-.1 3.4-.1 6.8-.2 10.2-.1 3.4-.2 6.8-.6 10.2-.3 3.3-.8 6.8-1.8 9.8l-.5 1.1c-.2.3-.4.7-.6 1-.4.7-.9 1.4-1.3 2.1-.9 1.4-1.9 2.8-2.9 4.2-2 2.8-4 5.5-6 8.2-1 1.3-2 2.7-3.1 4-1 1.3-2.1 2.7-3.1 4-2.1 2.6-4.2 6.2-6.5 8.6-2.2 2.5-4.4 4.7-6.9 5.5-2.5.9-5.8.9-9.2.9-3.3 0-6.8.1-9.4-.6-1.1-.2-2.2-.8-3.4-1.7z" fill="#c27b55" stroke-width="none" opacity="1"></path></g></g><g id="svga-group-mouth-single-move" transform="matrix(1,0,0,1,-0.5,2)"><g id="svga-group-mouth-single"><path id="SvgjsPath10309" d="M86.62 127.55s2.05 2.59 5.62 4.12 13.46 4.37 22.92-4c0 0-1.83-1.01-4.25-2.59s-3.79-2.39-5.87-2.71-3.23.58-4.6.64c-1.37.05-2.88-.8-4.51-.66-3.58.3-9.36 4.5-9.36 4.5l.05.7z" fill="#da7c87" stroke-width="none" opacity="1" transform="translate(0 2)"></path><path id="SvgjsPath10310" d="M85.9 127.36c1.93 1.35 3.95.8 6.06.2 1.1-.31 1.84-.44 3.03-.4 1.4.05 1.65.32 2.77.82.84.37 1.64.61 2.55.48 1.07-.15 1.89-.82 2.89-1.19 2.34-.87 4.17.21 6.35.86 2.06.61 4.33 1.01 6.18-.31.5-.36.08-1.04-.47-.81-2.86 1.23-5.62-.26-8.45-.67-2.23-.32-3.49.46-5.64.81-2.45.4-4.48-1.02-6.92-1.03-2.61-.02-5.17 1.6-7.62 0-.78-.53-1.48.71-.73 1.24z" fill="#cb5f6c" stroke-width="none" opacity="1" transform="translate(0 2)"></path></g></g><g id="svga-group-eyes-left-move" transform="matrix(1,0,0,1,0,0)"><g id="svga-group-eyes-left" transform="matrix(0.8999996000000001,0,0,0.8999996000000001,7.956734249905381,9.460037687411486)"><g id="svga-group-eyesback-left"><path id="SvgjsPath10174" d="M89.5 94.7s-.9-1.9-2.9-3.3c-2-1.3-4.8-2.7-9-1.7-4.2 1-6.6 3.3-8.1 5.3 0 0 .4.5 1.4 1.1 1 .6 4.7 2.7 8.8 2.5 4.1-.2 7.8-2.5 8.5-2.9.7-.3 1.3-1 1.3-1z" fill="#ffffff" stroke-width="none" opacity="1"></path></g><g id="svga-group-eyesiriswrapper-left" transform="matrix(1,0,0,1,0,0)"><g id="svga-group-eyesiriscontrol-left" transform="matrix(1,0,0,1,0,0)"><g id="svga-group-eyesiris-left"><path id="SvgjsPath10253" d="M80.1 88.1c3 0 5.5 2.4 5.5 5.5S83.1 99 80.1 99s-5.5-2.4-5.5-5.5 2.4-5.4 5.5-5.4z" fill="#4e60a3" stroke-width="none" opacity="1"></path><path id="SvgjsPath10254" d="M80.1 87.8c-3.2 0-5.7 2.6-5.7 5.7 0 3.2 2.6 5.7 5.7 5.7 3.2 0 5.7-2.6 5.7-5.7s-2.6-5.7-5.7-5.7zm4.7 7.7c-.6-.3-1.2-.6-1.9-.8.1-.2.2-.5.2-.8.7.1 1.3.1 2 .1.1.5-.1 1-.3 1.5zm-.3.6c-.5-.4-1.1-.8-1.7-1.1 0-.1.1-.1.1-.2l1.8.9c0 .2-.1.3-.2.4zm.1-5.1c-.6.1-1.3.4-1.8.8 0-.1-.1-.1-.1-.2.2-.2.5-.3.7-.5.3-.2.6-.5.9-.7 0 .2.2.4.3.6zm.3.8c-.7.2-1.3.3-1.9.6 0-.1-.1-.2-.1-.3.3-.1.6-.3.9-.4.3-.1.7-.2 1-.4 0 .2.1.4.1.5zm-1.7 1.7c0-.3-.1-.6-.1-.8.7-.1 1.3-.3 1.9-.5.1.4.2.9.2 1.4-.6-.1-1.3-.1-2-.1zm.8-3.3c-.3.2-.6.5-.9.7-.2.2-.5.3-.7.5l-.3-.3c.4-.5.8-1.1 1.1-1.7.3.3.6.5.8.8zm-3.6 6.5c.2 0 .5-.1.7-.2.1.3.3.7.4 1 .1.3.2.6.4.8-.4.2-.9.3-1.4.3 0-.6 0-1.3-.1-1.9zm1.4-8c.4.2.9.4 1.3.7-.4.5-.8 1.1-1.2 1.6-.1-.1-.2-.1-.3-.2.1-.7.2-1.5.2-2.1zm-1.5-.3c.4 0 .8.1 1.1.2-.1.5-.1 1-.2 1.5 0 .2-.1.3-.1.5-.2-.1-.4-.1-.6-.2 0-.7-.1-1.4-.2-2zm1.6 9c-.2-.3-.3-.7-.5-1 .1 0 .1-.1.2-.1.1.3.3.6.5.9.2.3.3.6.5.9-.1.1-.2.1-.3.2-.1-.4-.3-.6-.4-.9zm.4-.4c-.2-.3-.3-.6-.5-.9.1-.1.2-.1.3-.2.3.6.7 1.1 1.2 1.6-.1.1-.3.2-.4.3-.2-.2-.5-.5-.6-.8zm-2.1-8.6c-.1.6-.1 1.3-.1 2h-.4c0-.2-.1-.4-.1-.6-.1-.4-.1-.9-.2-1.4.2 0 .4-.1.6-.1.1 0 .1 0 .2.1zm-2.8.7c.3.6.7 1.2 1.1 1.7-.1.1-.2.1-.2.2-.1-.1-.2-.3-.4-.4-.3-.4-.6-.8-1-1.1.2-.2.3-.3.5-.4zm2 1.3c-.1 0-.2 0-.2.1-.2-.7-.4-1.3-.6-1.9.2-.1.4-.1.7-.2-.1.7-.1 1.4.1 2zm-.5.2s-.1 0-.1.1c-.3-.6-.7-1.2-1.1-1.7.2-.1.5-.2.7-.3.1.6.2 1.3.5 1.9zm-.5 5.6c.1 0 .1.1.2.1-.1.2-.2.3-.2.5-.2.4-.5.9-.6 1.3l-.6-.3c.3-.3.5-.7.8-1 .1-.2.3-.4.4-.6zm.4.7c.1-.1.1-.3.2-.4h.1c-.3.6-.5 1.3-.6 1.9-.2-.1-.3-.1-.5-.2.3-.4.5-.9.8-1.3zm.6-.3c.1 0 .2 0 .3.1-.2.6-.2 1.3-.3 2-.2 0-.5-.1-.7-.1.3-.7.5-1.4.7-2zm-2.7-7c.2.4.5.7.8 1 .2.2.3.4.4.6-.1.1-.3.2-.4.4-.5-.4-1.1-.8-1.7-1.1.4-.4.6-.7.9-.9zm-1.1 6.5 1.5-.9c.1 0 .1-.1.2-.1.1.1.2.3.3.4-.5.4-1 1-1.4 1.4-.3-.2-.4-.5-.6-.8zm-.5-1.1c.4-.1.8-.3 1.1-.4.2-.1.5-.2.7-.3 0 .2.1.3.2.5-.1.1-.2.1-.3.2-.5.3-.9.6-1.4 1-.1-.4-.2-.7-.3-1zm-.2-1.5c0-.2 0-.3.1-.5.6.2 1.3.3 2 .3v.5c-.3.1-.6.2-.9.4-.3.1-.7.2-1 .4-.2-.3-.2-.7-.2-1.1zm.3-1.6c.4.2.9.4 1.3.6.2.1.3.2.5.2 0 .1-.1.2-.1.3-.2 0-.3-.1-.5-.1-.5-.1-1-.2-1.5-.1l.3-.9zm.6-1.3c.5.4 1 .9 1.6 1.2-.1.2-.2.3-.3.5-.1 0-.2-.1-.3-.1-.5-.2-1.1-.4-1.6-.6.2-.4.4-.7.6-1zm.5 6.5c.5-.4 1.1-.9 1.5-1.4l.3.3c-.2.2-.3.4-.4.6-.3.3-.5.7-.8 1-.2-.1-.4-.3-.6-.5zm3.5 1.6c.1-.7.2-1.3.2-2h.2c-.1.7-.1 1.4 0 2h-.4zm3.7-1.3c-.4-.5-.9-1-1.3-1.5.2-.2.4-.4.5-.6.5.4 1.1.8 1.7 1.2-.3.2-.6.6-.9.9z" fill="#253984" stroke-width="none" opacity="1"></path><path id="SvgjsPath10255" d="M80.1 90.6c1.6 0 2.9 1.3 2.9 2.9s-1.3 2.9-2.9 2.9-2.9-1.3-2.9-2.9 1.2-2.9 2.9-2.9z" fill="#000000" stroke-width="none" opacity="1"></path><path id="SvgjsPath10256" d="M78.4 91c.6 0 1.1.5 1.1 1.1s-.5 1.1-1.1 1.1-1.1-.5-1.1-1.1.5-1.1 1.1-1.1zm3.6 4.1c.4 0 .6.3.6.6s-.3.6-.6.6-.6-.3-.6-.6.3-.6.6-.6z" fill="#ffffff" stroke-width="none" opacity="1"></path></g></g></g><g id="svga-group-eyesfront-left"><path id="SvgjsPath10182" d="M69.4 94.6c0 6.4 4.7 11.5 10.6 11.5s10.6-5.2 10.6-11.5S85.9 83.1 80 83.1s-10.6 5.1-10.6 11.5zm.1.5c1.5-1.9 4-4.3 8.1-5.3s7 .4 9 1.7c2 1.3 2.9 3.3 2.9 3.3s-.6.6-1.3 1.1c-.7.4-4.4 2.7-8.5 2.9-4.1.2-7.8-1.9-8.8-2.5-.9-.7-1.4-1.2-1.4-1.2z" fill="#f0c7b1" stroke-width="none" opacity="1" stroke="none"></path><path id="SvgjsPath10183" d="M89 91.7c-4.4-3.6-9.7-4.3-15-2.6-.2.1-.3-.2-.1-.3 5-2.2 11.3-.9 15.2 2.8.1 0 0 .1-.1.1z" fill="#e1ac8f" stroke-width="none" opacity="1" stroke="none"></path><path id="SvgjsPath10184" d="M68.9 96c.2-.2.5-.4.7-.6 5.1 5.2 15 4.5 20-.4 0 0 0 .1.1.1.1.2.4 0 .3-.2 0-.1-.1-.1-.1-.2.1-.1 0-.3-.2-.3-2.1-3.6-6.3-5.4-10.4-5.2-3.9.2-9.2 2.8-10.7 6.6-.2.3.1.4.3.2zm.9-.8c1.2-1.1 2.2-2.4 3.7-3.3 1.6-1 3.3-1.7 5.2-2 4.2-.7 8.4 1.3 10.6 4.8-2.8 2.1-5.9 3.6-9.5 3.7-3.9.1-6.7-1.3-10-3.2z" fill="#000000" stroke-width="none" opacity="1" stroke="none"></path></g></g></g><g id="svga-group-eyes-right-move" transform="matrix(1,0,0,1,0,0)"><g id="svga-group-eyes-right" transform="matrix(0.8999996000000001,0,0,0.8999996000000001,12.046054577458179,9.460037687411486)"><g id="svga-group-eyesback-right"><path id="SvgjsPath10175" d="M110.5 94.7s.9-1.9 2.9-3.3c2-1.3 4.8-2.7 9-1.7 4.2 1 6.6 3.3 8.1 5.3 0 0-.4.5-1.4 1.1-1 .6-4.7 2.7-8.8 2.5-4.1-.2-7.8-2.5-8.5-2.9-.7-.3-1.3-1-1.3-1z" fill="#ffffff" stroke-width="none" opacity="1"></path></g><g id="svga-group-eyesiriswrapper-right" transform="matrix(1,0,0,1,0,0)"><g id="svga-group-eyesiriscontrol-right" transform="matrix(1,0,0,1,0,0)"><g id="svga-group-eyesiris-right"><path id="SvgjsPath10257" d="M119.9 88.1c3 0 5.5 2.4 5.5 5.5S123 99 119.9 99s-5.5-2.4-5.5-5.5 2.5-5.4 5.5-5.4z" fill="#4e60a3" stroke-width="none" opacity="1"></path><path id="SvgjsPath10258" d="M119.9 87.8c-3.2 0-5.7 2.6-5.7 5.7 0 3.2 2.6 5.7 5.7 5.7s5.7-2.6 5.7-5.7c.1-3.1-2.5-5.7-5.7-5.7zm4.8 7.7c-.6-.3-1.2-.6-1.9-.8.1-.2.2-.5.2-.8.7.1 1.3.1 2 .1 0 .5-.1 1-.3 1.5zm-.3.6c-.5-.4-1.1-.8-1.7-1.1 0-.1.1-.1.1-.2l1.8.9c0 .2-.1.3-.2.4zm.1-5.1c-.6.1-1.3.4-1.8.8 0-.1-.1-.1-.1-.2.2-.2.5-.3.7-.5.3-.2.6-.5.9-.7 0 .2.1.4.3.6zm.3.8c-.7.2-1.3.3-1.9.6 0-.1-.1-.2-.1-.3.3-.1.6-.3.9-.4.3-.1.7-.2 1-.4 0 .2.1.4.1.5zm-1.7 1.7c0-.3-.1-.6-.1-.8.7-.1 1.3-.3 1.9-.5.1.4.2.9.2 1.4-.6-.1-1.3-.1-2-.1zm.8-3.3c-.3.2-.6.5-.9.7-.2.2-.5.3-.7.5l-.3-.3c.4-.5.8-1.1 1.1-1.7.3.3.6.5.8.8zm-3.6 6.5c.2 0 .5-.1.7-.2.1.3.3.7.4 1 .1.3.2.6.4.8-.4.2-.9.3-1.4.3 0-.6 0-1.3-.1-1.9zm1.4-8c.4.2.9.4 1.3.7-.4.5-.8 1.1-1.2 1.6-.1-.1-.2-.1-.3-.2.1-.7.2-1.5.2-2.1zm-1.5-.3c.4 0 .8.1 1.1.2-.1.5-.1 1-.2 1.5 0 .2-.1.3-.1.5-.2-.1-.4-.1-.6-.2 0-.7-.1-1.4-.2-2zm1.6 9c-.2-.3-.3-.7-.5-1 .1 0 .1-.1.2-.1.1.3.3.6.5.9.2.3.3.6.5.9-.1.1-.2.1-.3.2-.2-.4-.3-.6-.4-.9zm.4-.4c-.2-.3-.3-.6-.5-.9.1-.1.2-.1.3-.2.3.6.7 1.1 1.2 1.6-.1.1-.3.2-.4.3-.2-.2-.5-.5-.6-.8zm-2.1-8.6c-.1.6-.1 1.3-.1 2h-.4c0-.2-.1-.4-.1-.6-.1-.4-.1-.9-.2-1.4.2 0 .4-.1.6-.1.1 0 .1 0 .2.1zm-2.8.7c.3.6.7 1.2 1.1 1.7-.1.1-.2.1-.2.2-.1-.1-.2-.3-.4-.4-.3-.4-.6-.8-1-1.1.2-.2.3-.3.5-.4zm2 1.3c-.1 0-.2 0-.2.1-.2-.7-.4-1.3-.6-1.9.2-.1.4-.1.7-.2-.2.7-.1 1.4.1 2zm-.5.2s-.1 0-.1.1c-.3-.6-.7-1.2-1.1-1.7.2-.1.5-.2.7-.3.1.6.2 1.3.5 1.9zm-.5 5.6c.1 0 .1.1.2.1-.1.2-.2.3-.2.5-.2.4-.5.9-.6 1.3l-.6-.3c.3-.3.5-.7.8-1 .1-.2.3-.4.4-.6zm.3.7c.1-.1.1-.3.2-.4h.1c-.3.6-.5 1.3-.6 1.9-.2-.1-.3-.1-.5-.2.4-.4.6-.9.8-1.3zm.7-.3c.1 0 .2 0 .3.1-.2.6-.2 1.3-.3 2-.2 0-.5-.1-.7-.1.2-.7.5-1.4.7-2zm-2.7-7c.2.4.5.7.8 1 .2.2.3.4.4.6-.1.1-.3.2-.4.4-.5-.4-1.1-.8-1.7-1.1.4-.4.6-.7.9-.9zm-1.1 6.5 1.5-.9c.1 0 .1-.1.2-.1.1.1.2.3.3.4-.5.4-1 1-1.4 1.4-.3-.2-.5-.5-.6-.8zM115 95c.4-.1.8-.3 1.1-.4.2-.1.5-.2.7-.3 0 .2.1.3.2.5-.1.1-.2.1-.3.2-.5.3-.9.6-1.4 1-.1-.4-.2-.7-.3-1zm-.2-1.5c0-.2 0-.3.1-.5.6.2 1.3.3 2 .3v.5c-.3.1-.6.2-.9.4-.3.1-.7.2-1 .4-.2-.3-.2-.7-.2-1.1zm.3-1.6c.4.2.9.4 1.3.6.2.1.3.2.5.2 0 .1-.1.2-.1.3-.2 0-.3-.1-.5-.1-.5-.1-1-.2-1.5-.1.1-.3.1-.6.3-.9zm.6-1.3c.5.4 1 .9 1.6 1.2-.1.2-.2.3-.3.5-.1 0-.2-.1-.3-.1-.5-.2-1.1-.4-1.6-.6.2-.4.4-.7.6-1zm.5 6.5c.5-.4 1.1-.9 1.5-1.4l.3.3c-.2.2-.3.4-.4.6-.3.3-.5.7-.8 1-.2-.1-.4-.3-.6-.5zm3.5 1.6c.1-.7.2-1.3.2-2h.2c-.1.7-.1 1.4 0 2h-.4zm3.7-1.3c-.4-.5-.9-1-1.3-1.5.2-.2.4-.4.5-.6.5.4 1.1.8 1.7 1.2-.3.2-.6.6-.9.9z" fill="#253984" stroke-width="none" opacity="1"></path><path id="SvgjsPath10259" d="M119.9 90.6c1.6 0 2.9 1.3 2.9 2.9s-1.3 2.9-2.9 2.9-2.9-1.3-2.9-2.9 1.3-2.9 2.9-2.9z" fill="#000000" stroke-width="none" opacity="1"></path><path id="SvgjsPath10260" d="M118.3 91c.6 0 1.1.5 1.1 1.1s-.5 1.1-1.1 1.1-1.1-.5-1.1-1.1.5-1.1 1.1-1.1zm3.6 4.1c.4 0 .6.3.6.6s-.3.6-.6.6-.6-.3-.6-.6.3-.6.6-.6z" fill="#ffffff" stroke-width="none" opacity="1"></path></g></g></g><g id="svga-group-eyesfront-right"><path id="SvgjsPath10185" d="M120 83.1c-5.9 0-10.6 5.2-10.6 11.5s4.7 11.5 10.6 11.5 10.6-5.2 10.6-11.5-4.8-11.5-10.6-11.5zm9.1 13.1c-1 .6-4.7 2.7-8.8 2.5-4.1-.2-7.8-2.5-8.5-2.9-.7-.4-1.3-1.1-1.3-1.1s.9-1.9 2.9-3.3c2-1.3 4.8-2.7 9-1.7s6.6 3.3 8.1 5.3c0 .1-.5.6-1.4 1.2z" fill="#f0c7b1" stroke-width="none" opacity="1" stroke="none"></path><path id="SvgjsPath10188" d="M111 91.7c4.4-3.6 9.7-4.3 15-2.6.2.1.3-.2.1-.3-5-2.2-11.3-.9-15.2 2.8-.1 0 0 .1.1.1z" fill="#e1ac8f" stroke-width="none" opacity="1" stroke="none"></path><path id="SvgjsPath10189" d="M131.5 95.8c-1.5-3.8-6.8-6.4-10.7-6.6-4.1-.2-8.3 1.6-10.4 5.2-.1 0-.3.2-.2.3 0 .1-.1.1-.1.2-.1.2.2.4.3.2 0 0 0-.1.1-.1 5 5 14.9 5.7 20 .4.2.2.4.4.7.6.1.2.4.1.3-.2zm-11.3 2.6c-3.6-.1-6.7-1.7-9.5-3.7 2.2-3.6 6.4-5.5 10.6-4.8 1.8.3 3.6 1 5.2 2 1.5.9 2.5 2.2 3.7 3.3-3.3 1.9-6.1 3.3-10 3.2z" fill="#000000" stroke-width="none" opacity="1" stroke="none"></path></g></g></g><g id="svga-group-facehighlight-single"></g><g id="svga-group-eyebrows-left-move" transform="matrix(1,0,0,1,0,0)"><g id="svga-group-eyebrows-left-rotate" transform="matrix(1,1.7453292144864463e-9,-1.7453292144864463e-9,1,1.4163771311359596e-7,-1.376279215037357e-7)"><g id="svga-group-eyebrows-left" transform="matrix(0.8999996000000001,0,0,0.8999996000000001,7.8855303518096775,8.115275991247543)"><path id="SvgjsPath10080" d="M68.1 81c.2-.2.4-.5.6-.7.1-.2.2-.4.4-.6.3-.4.6-.7 1-1 .2-.2.6-.3.8-.1.3-.3.7-.5 1.1-.7 1.2-.7 2.4-1.3 3.8-1.2 1.2-.3 2.5-.2 3.6-.2 1.7 0 3.4.2 5 .8 1 .3 3 1.3 4 2.5 1.2.6 2.1 1.6 2.3 3.1.2 1.5-1 2.5-2.3 3-1.7.6-3.2-.1-4.6-1-.8-.5-1.6-.9-2.5-1.4-1.5-.4-3-.6-4.6-.8-.6-.1-1.1-.2-1.7-.3h-.1c-.1.1-.2.2-.4.3-.4.2-.9.4-1.5.5-1.2.5-2.4 1-3.5 1.6-.2.1-.3.1-.5.1-.3.4-.7.7-1.3.5-.4-.1-.6-.4-.7-.8-.2-.1-.4-.4-.5-.7 0-1 1-2.1 1.6-2.9z" fill="#2a232b" stroke-width="none" opacity="1"></path><path id="SvgjsPath10081" d="M84 77.8c2.6 1.4 3.5 5 3.5 7.8 0 .2-.4.3-.4.1-.3-1.4-.5-2.8-1-4.1-.5-1.3-1.3-2.4-2.3-3.5-.1-.2 0-.4.2-.3zm4.1 7.9c.4-.8.8-1.5 1-2.4.1-.9.1-1.7-.1-2.6 0-.2.2-.3.3-.2 1 1.6.7 4.3-.9 5.4-.2.2-.4 0-.3-.2zm-11.8-8.6c.3.1.6.2.8.4 0-.1.1-.1.2-.1 3 .2 5.5 4.2 5.7 6.8 0 .3-.4.3-.5.1-.6-1.4-1.2-2.8-2.1-4-.6-.7-1.2-1.2-1.9-1.7 1 1.1 1.6 2.6 1.8 3.9 0 .2-.3.3-.3.1-.4-1.1-.9-2.1-1.6-3-.7-.8-1.5-1.4-2.3-2.2-.2-.1 0-.3.2-.3zm-3.4.8c2.3-.1 4.4 2.5 4.7 4.5.1.3-.3.5-.5.2-.7-.9-1-2-1.8-2.8-.7-.7-1.7-1.1-2.5-1.6-.2 0-.1-.3.1-.3zm-2.5 2c1.9-.2 3.8 1.1 4.7 2.5.1.2-.1.3-.3.2-.6-.6-1.3-1.2-2.1-1.6-.8-.4-1.6-.5-2.5-.8-.1 0 0-.3.2-.3zm-1.2 2.4c1.1-.1 2 .3 2.8 1.1.1.1 0 .2-.1.2-.8-.6-1.7-.9-2.6-.9-.2-.2-.2-.4-.1-.4z" fill="#3a353a" stroke-width="none" opacity="1"></path><path id="SvgjsPath10082" d="M91 84.6c1-1.4.6-3.9-.6-5.1-.2-.2-.5.1-.4.3.1.1.1.2.2.4-.4-.6-.8-1.1-1.3-1.6-3.4-3.2-8.6-3.5-13-2.8-4.2.7-8.1 2.9-9.3 7.2v.2c-.1 0-.2.1-.2.2-.8 1.3.4 2.8 1.8 2.9 1 .1 2-.4 2.8-.9 1.3-.7 2.6-1.3 4-1.6 3-.5 5.5.5 8.1 1.8 1.6.8 3.3 1.5 5.2 1.1 1.5-.4 2.4-1.1 2.7-2.1zm-7.4-7.3c.7 1.5 1.3 3 1.7 4.6.3 1.1.4 2.3.5 3.4-.6-.2-1.2-.4-1.7-.7.3-2.7-.8-5.6-2.5-7.7.7.1 1.4.2 2 .4zm-8.1 5.1c-.3-1.1-.8-2-1.5-2.9-.4-.5-.9-1.1-1.5-1.6.8-.3 1.6-.6 2.5-.7.9.7 1.7 1.3 2.4 2.1.8 1 1.5 2.1 2 3.2-.3-.1-.5-.1-.8-.2-1 0-2.1 0-3.1.1zm-4-4c.6.6 1.3 1 1.9 1.7.6.7 1.1 1.6 1.5 2.4-.5.1-.9.2-1.4.3-.6-.7-1.2-1.4-1.9-1.9-.6-.4-1.3-.9-2-1.2.6-.5 1.2-.9 1.9-1.3zm-4.4 4.8c.4-1.2 1.1-2.2 1.9-3 .7.4 1.5.7 2.1 1.2.7.5 1.3 1.1 1.8 1.7-.8.3-1.5.7-2.3 1.1-.9.5-3.9 1.9-3.6-.6 0-.1 0-.2-.1-.2l.2-.2zm14-6.3c.8 1.2 1.4 2.4 1.8 3.7.4 1.2.5 2.4.6 3.7-1.2-.6-2.3-1.2-3.6-1.5-.6-2.1-2-4.3-3.8-5.7 1-.1 1.9-.2 2.9-.2h2.1zm8.8 7.2c-.6 1.4-2 1.6-3.3 1.4.1-2.7-1-5.8-2.3-8.1.7.2 1.3.4 1.9.7 1.8 1 4.8 3.6 3.7 6z" fill="#1b141c" stroke-width="none" opacity="1"></path></g></g></g><g id="svga-group-eyebrows-right-move" transform="matrix(1,0,0,1,0,0)"><g id="svga-group-eyebrows-right-rotate" transform="matrix(1,1.7453292144864463e-9,-1.7453292144864463e-9,1,1.4163771311359596e-7,-2.1143792139355355e-7)"><g id="svga-group-eyebrows-right" transform="matrix(0.8999996000000001,0,0,0.8999996000000001,12.114549648190291,8.115275991247543)"><path id="SvgjsPath10083" d="M131.9 81c-.2-.2-.4-.5-.6-.7-.1-.2-.2-.4-.4-.6-.3-.4-.6-.7-1-1-.2-.2-.6-.3-.8-.1-.4-.3-.7-.5-1.1-.7-1.2-.7-2.4-1.3-3.8-1.2-1.2-.3-2.5-.2-3.6-.2-1.7 0-3.4.2-5 .8-1 .3-3 1.3-4 2.5-1.2.6-2.1 1.6-2.3 3.1-.2 1.5 1 2.5 2.3 3 1.7.6 3.2-.1 4.6-1 .8-.5 1.6-.9 2.5-1.4 1.5-.4 3-.6 4.6-.8.6-.1 1.1-.2 1.7-.3h.1c.1.1.2.2.4.3.4.2.9.4 1.5.5 1.2.5 2.4 1 3.5 1.6.2.1.4.1.5.1.3.4.7.7 1.3.5.4-.1.6-.4.7-.8.2-.1.4-.4.5-.7 0-1-1-2.1-1.6-2.9z" fill="#2a232b" stroke-width="none" opacity="1"></path><path id="SvgjsPath10084" d="M116 77.8c-2.6 1.4-3.5 5-3.5 7.8 0 .2.4.3.4.1.3-1.4.5-2.8 1-4.1.5-1.3 1.3-2.4 2.3-3.5.1-.2 0-.4-.2-.3zm-4.1 7.9c-.4-.8-.8-1.5-1-2.4-.1-.9-.1-1.7.1-2.6 0-.2-.2-.3-.3-.2-1 1.6-.7 4.3.9 5.4.2.2.4 0 .3-.2zm11.8-8.6c-.3.1-.6.2-.8.4 0-.1-.1-.1-.2-.1-3 .2-5.5 4.2-5.7 6.8 0 .3.4.3.5.1.6-1.4 1.2-2.8 2.1-4 .6-.7 1.2-1.2 1.9-1.7-1 1.1-1.6 2.6-1.8 3.9 0 .2.3.3.3.1.4-1.1.9-2.1 1.6-3 .7-.8 1.5-1.4 2.3-2.2.2-.1 0-.3-.2-.3zm3.4.8c-2.3-.1-4.4 2.5-4.7 4.5-.1.3.3.5.5.2.7-.9 1-2 1.8-2.8.7-.7 1.7-1.1 2.5-1.6.2 0 .1-.3-.1-.3zm2.5 2c-1.9-.2-3.8 1.1-4.7 2.5-.1.2.1.3.3.2.6-.6 1.3-1.2 2.1-1.6.8-.4 1.6-.5 2.5-.8.1 0 .1-.3-.2-.3zm1.2 2.4c-1.1-.1-2 .3-2.8 1.1-.1.1 0 .2.1.2.8-.6 1.7-.9 2.6-.9.2-.2.2-.4.1-.4z" fill="#3a353a" stroke-width="none" opacity="1"></path><path id="SvgjsPath10085" d="M111.7 86.7c1.8.4 3.5-.3 5.2-1.1 2.6-1.3 5.1-2.3 8.1-1.8 1.5.2 2.7.8 4 1.6.9.5 1.8 1 2.8.9 1.4-.1 2.6-1.6 1.8-2.9l-.2-.2V83c-1.2-4.3-5.1-6.6-9.3-7.2-4.4-.7-9.5-.4-13 2.8-.5.4-.9 1-1.3 1.6.1-.1.1-.2.2-.4.1-.3-.2-.5-.4-.3-1.2 1.1-1.6 3.6-.6 5.1.3 1 1.2 1.7 2.7 2.1zm4.7-9.4c.7-.2 1.3-.3 2-.3-1.7 2.1-2.8 5-2.5 7.7-.5.2-1.1.5-1.7.7.2-1.2.2-2.3.5-3.4.4-1.7 1-3.2 1.7-4.7zm5 5.2c-.3 0-.5.1-.8.2.6-1.2 1.2-2.2 2-3.2.7-.8 1.6-1.5 2.4-2.1.8.2 1.7.4 2.5.7-.6.4-1.1 1-1.5 1.6-.7.9-1.2 1.8-1.5 2.9-1-.3-2.1-.3-3.1-.1zm9-2.8c-.7.3-1.4.8-2 1.2-.7.6-1.4 1.2-1.9 1.9-.5-.1-.9-.2-1.4-.3.4-.8.9-1.7 1.5-2.4s1.2-1.1 1.9-1.7c.7.4 1.3.8 1.9 1.3zm2.5 3.6c-.1.1-.1.1-.1.2.3 2.5-2.6 1.1-3.6.6-.7-.4-1.5-.8-2.3-1.1.6-.6 1.2-1.2 1.8-1.7.6-.5 1.4-.8 2.1-1.2.8.8 1.5 1.8 1.9 3 .2.1.2.1.2.2zm-11.8-6.4c.9 0 1.9.1 2.9.2-1.8 1.3-3.2 3.6-3.8 5.7-1.3.3-2.4.9-3.6 1.5.1-1.2.2-2.5.6-3.7.4-1.3 1.1-2.5 1.8-3.7h2.1zm-7.2 1.3c.6-.3 1.2-.6 1.9-.7-1.4 2.3-2.5 5.3-2.3 8.1-1.4.2-2.7 0-3.3-1.4-1.2-2.5 1.8-5.1 3.7-6z" fill="#1b141c" stroke-width="none" opacity="1"></path></g></g></g><g id="svga-group-beardwrap"><g id="svga-group-beard-single-move" transform="matrix(1,0,0,1,0,0)"><g id="svga-group-beard-single"><path id="SvgjsPath10439" d="M145.5 112.7c-.3-5.3.2-17.7-4-18.7-4.1-.9-5.4 7.3-6.8 15.4s-2.9 15.7-8.2 14.8c-5.3-.9-1.6-5.2-5.4-7.4-3.8-2.3-11.2.3-14 1.5-2.8 1.2-9.1 1.5-14.2-.3s-11.9-2.3-14.2.3-.6 4.4-3.2 6.1-7.7-.8-8.7-6.1-1.2-13.5-1.9-17.1c-.6-3.6-1.7-7.4-4-7.4-3.7 0-5.4 4.9-5.9 8.7-.5 3.8-1 17.5 0 22.2.5 2.9.8 9.1 5.1 13.9s22.4 19.2 29.5 21.8 13.5 2.4 19.9.5c6.3-1.8 26.4-16.8 30.3-22.5 7.3-9.4 6-20.5 5.7-25.7zm-29 20c-3.5 6.6-7.6 7.3-9.3 7.8s-2.6-.4-2.6-1.6 0-2.1-.6-2.1-6.4-.2-7.4-.2-.8.6-.9 2.3c-.1 1.6-1.9 2-4.3 1s-7.2-6.9-8.6-11.5-1.2-5.4.6-4.9c.9.2 4.7 1.2 7.9 1.4s7.2-.2 8.6-.8c1.4-.5 6 .9 9.3.8s6.8-1.1 8.7-1.8c1.9-.8 2 3.2-1.4 9.6z" fill="#2a232b" stroke-width="none" opacity="1"></path><path id="SvgjsPath10440" d="M55.4 118.9c0-.1-.1-.1-.1 0-.2.8-.3 1.6-.5 2.4.3-4.3.5-8.7.8-13 0-.2-.2-.2-.3-.2.3-1.9.6-3.8.8-5.8 0-.3-.4-.4-.5-.1-.2.8-.4 1.5-.5 2.3.5-3 .9-7.7 3.6-9.4.2-.1.1-.4-.2-.4-1.4.4-2 1.6-2.4 2.9-.8 2.3-1.2 4.8-1.3 7.2 0 .1.2.2.2 0v-.1c-.4 2.2-.5 4.6-.5 6.8-.6 4-.8 8.2-.3 12 0 .2.2.2.3.1-.1 2.1.2 4.3 1.1 6.3.1.3.5.1.4-.1-.8-3.7-1.4-7.2-.6-10.9zm3 13.9c0-.2-.2-.2-.3-.1-.2-2.1-.4-4.1-.1-6.2 0-.3-.5-.4-.5-.1-.5 2.7-.5 5.5.4 8.1.1.2.5.2.4-.1v-.1c.5 2 1.2 4 2.6 5.5.2.2.5-.1.4-.3-1.3-2.3-2.4-4.3-2.9-6.7zM83 156.9c-2.6-2.6-5.1-5.2-7.2-8.3-.1-.1-.2 0-.2.1 1.8 3.2 4 6.3 7 8.5.3.2.6-.1.4-.3zm-4.2-2.7v-.1c-.4-.5-.9-1-1.3-1.6-.3-.5-.5-1.2-.8-1.7-.1-.1-.2-.1-.3.1-.1.5.1 1.1.4 1.6-2.3-1.8-4.9-3.5-6.2-6.2-.1-.2-.3-.1-.3.1.2.4.4.8.7 1.2-2.2-2-4.5-3.9-6.6-6.1-.2-.2-.5 0-.3.2.5.6 1.1 1.2 1.7 1.8-2.2-2-4.1-4.1-6-6.4-.1-.1-.3 0-.2.2 2 3 4.1 6.3 7.4 7.9.1.1.2 0 .3-.1 1.3 1.3 2.8 2.5 4.4 3.4h.1c1.7 2.2 4.1 3.8 6.4 5.4.1.1.2.1.2.2.1.1.2.2.4.2 0 .2.2.1 0-.1 0 .1 0 0 0 0zm6.1 1.5c-.2-.2-.4 0-.4.2-1.6-1.4-3.3-2.9-4.8-4.4-.2-.2-.6.1-.4.4 2.8 3 5.8 6.1 9.2 8.4.2.2.5-.2.3-.4l-.6-.6c1.7 1.4 3.6 2.6 5.6 3.1.1 0 .2-.1.1-.2-2.9-2.3-6.2-4-9-6.5zm7.9 4.7c-.3-.2-.7.3-.3.5 1.7.8 3.7 1.9 5.6 1.7.2 0 .4-.3.1-.4-1.7-.8-3.6-1-5.4-1.8zm13.9.2c-2.4.5-4.5 1.4-7 1.5-.4 0-.5.5-.1.6 1.2.3 2.3-.1 3.4-.4 1.3-.4 2.6-.9 3.8-1.5.1 0 0-.2-.1-.2zm4.9-1.4c-2.1 1.2-4 2.6-6.4 2.8-.2 0-.2.3 0 .3 2.5-.2 4.7-1.4 6.6-2.9.1-.1 0-.3-.2-.2zm5.9-4.3c-1.2.9-2.4 1.9-3.6 2.8-1.3 1.1-2.8 2.5-4.3 3.3-.2.1-.1.5.2.4 1.4-.4 2.6-1.5 3.7-2.4 1.5-1.2 3-2.4 4.3-3.7.1-.3-.1-.6-.3-.4zm26.8-53c-.2-2.2-.8-4.2-1.4-6.3-.1-.2-.5-.2-.4.1.5 2.1.9 4.2 1.5 6.2.1.2.3.2.3 0zm.5.7c0-.2-.4-.1-.3 0 .2 2.3.5 4.7.9 7-.1-.1-.3 0-.3.1 0 3.8-.1 7.6 0 11.3-.2 2.8-.5 5.6-.9 8.3 0 .2.3.3.3.1.8-2.9 1.1-5.9 1.2-8.8.3-3.4.2-6.8-.2-10.2.2.8.4 1.5.6 2.2.1.2.4.1.4-.1-.5-3.2-1.2-6.6-1.7-9.9zm-1.6 25.2c0-.2-.2-.2-.3 0-.2 1-.2 2.1-.4 3.1-1.3 3-3 5.4-5 7.9.2-.3.3-.6.5-1 .1-.2-.2-.4-.4-.2-1.1 1.7-2.3 3.4-3.4 5-.1-.2-.4-.3-.6-.1-2 2.4-4.3 4.5-6.4 6.8 0-.1-.1-.3-.3-.2-2.3 1.3-4.4 3-6.4 4.8h-.2c-2.4 1.6-4.7 3.6-6.9 5.5-.1.1 0 .3.2.2 1.9-1.4 3.9-2.8 5.7-4.3.1 0 .2.1.2 0 2.5-1.8 5.1-3.6 7.4-5.7-.2.2.1.5.3.3 2.3-1.6 4.3-3.8 6.1-6-.2.2-.3.5-.5.7v.1l-.6.6c-.2.3-.5.6-.6 1 0 .1.1.2.2.1.4-.2.6-.6.9-.9.2-.2.3-.4.5-.6 1.4-1.3 2.6-2.9 3.6-4.6h.3c.8-.6 1.6-1.4 2.2-2.2-.1.2-.2.3-.3.5-.6.9-1.4 1.7-2.1 2.6-.4.4-.8.9-1.2 1.3-.9.8-1.8 1.6-2.5 2.5-.2.2.1.5.3.3.9-.9 1.8-1.8 2.8-2.7.6-.6 1.2-1.2 1.6-1.9 1.3-1.2 2.4-3 2.8-4.7.3-.6.6-1.1.9-1.7.5-1 1-2.1 1.3-3.1 0-.1 0-.2.1-.3 0-.1 0-.1.1-.2v-.1c.1-.8.1-1.8.1-2.8zm-58.8-4.9c-.4-.1-.9-.1-1.4-.2-1-.1-1.9-.4-2.9-.3-.2 0-.3.3-.1.4 1 .6 2.4.8 3.8.9 1.7.5 3.6.7 5.4.7 0 .1 0 .2.1.2 3.6 1 8.1.6 11.6-1 4.1 1.6 9.1 1.5 13.4.5 2.2.2 4.5-.5 6.4-1.4.3-.1.1-.5-.2-.4-2 .4-3.8 1.1-5.8 1.2h-.1c-.2 0-.5-.1-.7-.1-2.8-.4-5.5-1.2-8.2-2.4-.2-.1-.4.2-.2.3 1.5.8 3.1 1.5 4.8 2-3.5.1-7.1.6-10.4-1.2-.2-.1-.3.2-.2.3.5.3 1.1.6 1.6.8h-.1c-.2.1-.3.1-.5.1-.1 0-.2 0-.2.1-3.1.8-5.9 1.2-9.1 1.2 2-.2 4-.5 5.8-1 .2 0 .1-.3 0-.3-2.7.2-5.2.4-7.8.4 3.5-.3 7-1.3 10.1-3 .2-.1.1-.4-.2-.4-4.9 1.8-9.7 2.7-15 2.8.2-.3.2-.2.1-.2zm26.4.7c-3.1.2-6 .4-9.2-.4.1-.1.1-.2 0-.3 2.8 1 6 .8 9.2.7zm-51.3-23c-1 2.4-1.8 4.9-1.6 7.6 0 .1 0 .1.1.1-.5 1.1-.7 2.3-.4 3.6 0 .2.3.2.3-.1 0-1.4.1-2.8.7-4.1.1-.2-.2-.4-.3-.2.3-2.4.7-4.7 1.5-6.9 0 0-.3-.1-.3 0zm-1.2 11.2c-1.2 2.9-1.9 6.1-1.4 9.3 0 .1.1.2.2.2 0 .7 0 1.4.2 2.1.1.3.4.2.5-.1.1-1.9.2-3.8.4-5.6 0-.3-.4-.3-.5-.1 0 .1-.1.3-.1.4.2-2 .4-4.1 1-6.1 0-.2-.3-.3-.3-.1zm.6 10.4c-.1 1.7-.2 3.4-.1 5 0 .2.4.3.4.1.2-1.7.2-3.4.2-5.1 0-.3-.5-.3-.5 0zm7.3 11.4c.4 1.5.8 2.9 1.3 4.4 0 .1.1 0 .1 0-.3-1.5-.8-2.9-1.1-4.4-.1-.2-.3-.2-.3 0zm2.4 3.2c.2 1.5.6 3.1 1.5 4.4.1.1.3.1.3-.1-.5-1.5-1.1-2.9-1.4-4.4-.1-.2-.5-.1-.4.1zm4.8 7.7c-.6-1.9-1.5-3.6-2.1-5.5-.1-.3-.5-.1-.4.1.5 1.9 1.1 3.9 2.2 5.5.1.2.4.1.3-.1zm2.4 2c.1.1.3.1.3-.1-.4-1.1-1-2.2-1.5-3.3-.1-.3-.5 0-.4.2.5 1.1.9 2.3 1.6 3.2zm2.3 2.4c.1.1.3.1.3-.1-.4-1.2-1.1-2.3-1.8-3.3-.1-.2-.5 0-.4.2.7 1 1.2 2.2 1.9 3.2zm3-.8c.4 1.5 1 3 2.1 4.2.2.2.4 0 .3-.2-.7-1.4-1.6-2.6-2.1-4-.1-.2-.3-.2-.3 0zm5.5 7c.1.1.3-.1.2-.2-1-1.2-2.1-2.4-2.9-3.8-.1-.2-.4 0-.3.2.8 1.4 1.7 2.8 3 3.8zm2.4 1.3c.1.1.3 0 .2-.2-.7-1-1.7-1.9-2.5-2.9-.2-.2-.5.1-.3.3.8 1 1.6 2 2.6 2.8zm2.7 1.3c.1.1.2 0 .2-.1-.6-.9-1.5-1.8-2.2-2.6-.2-.2-.5.1-.3.3.7.8 1.4 1.7 2.3 2.4zm3.1 1.6c.1 0 .3-.1.1-.2-.5-.4-1-.7-1.5-1.2-.2-.2-.5.1-.3.3.6.4 1.1.9 1.7 1.1zm-31.9-30.4c.2 1.8.8 3.3 1.8 4.9.1.2.4 0 .3-.2-.9-1.4-1.5-3-1.9-4.7 0-.1-.2-.1-.2 0zm-.4 1.3c.2.7.5 1.4.9 2 .1.2.4 0 .3-.2-.5-1-.9-2-1.3-3.1 0-.1-.3-.1-.2.1 0 .2.1.4.1.5-.6-1.3-1-2.7-1.2-4.1 0-.1-.2-.1-.2 0 .1 1.7.6 3.2 1.4 4.7 0 .2.1.2.2.1zm43.8 28.8c1.4-1.1 2.8-2.4 3.6-4 .1-.1-.1-.3-.2-.2-1.2 1.4-2.2 2.8-3.7 4-.1.1.1.3.3.2zm2.6-1.6c.4-.4.8-.9 1.1-1.3.3-.4.7-1 .8-1.5.1-.2-.3-.4-.4-.2-.3.4-.5.9-.8 1.4-.3.5-.7.9-1.1 1.3-.1.2.2.5.4.3zm2.1-1.2c.8-.7 1.7-1.7 1.9-2.7 0-.1-.2-.3-.3-.2-.7.9-1.2 1.8-1.9 2.6-.1.3.1.5.3.3zm2.6-1.6c.6-.6 1.2-1.3 1.7-2 .2-.3-.2-.5-.4-.3-.6.6-1.2 1.2-1.7 1.8-.4.3.1.8.4.5zm10-7.5c.6-.3.8-1 1.1-1.6.3-.7.5-1.5.6-2.3 0-.2-.3-.2-.3 0-.3.7-.6 1.5-.9 2.2-.2.5-.6 1-.6 1.6-.1 0 0 .1.1.1zm2.1-1.7c.6-.8.7-2 1-2.9.1-.3-.4-.5-.5-.1-.3.9-.8 2-.8 3-.1.1.2.2.3 0zm1.5-1.3c.6-.8.7-2.1.8-3 0-.2-.4-.3-.4-.1l-.3 1.5c-.1.5-.3.9-.4 1.4-.1.2.1.3.3.2zm1.2-1.2c.5-.6.6-1.6.5-2.3 0-.3-.5-.3-.5 0 0 .4 0 .7-.1 1.1-.1.3-.2.6-.3 1-.1.1.2.3.4.2zm3.2-3.4c.6-1 .5-2.7.6-3.8 0-.1-.2-.1-.2 0-.1.7-.2 1.4-.4 2.1-.1.5-.3 1.1-.2 1.6-.1.2.1.2.2.1zm1.7-2.2c.2-.4.1-.9.2-1.4 0-.5.1-1.1.1-1.6 0-.2-.4-.2-.4 0-.1 1-.4 2.1-.2 3.1.1.1.3.1.3-.1zm1-1.1c.3-.3.2-.8.3-1.2v-1.6c0-.3-.5-.3-.5 0v1.5c0 .4-.2.9 0 1.3 0 .1.1.1.2 0zm1.1-1.5c.4-.8.4-1.8.2-2.6-.1-.2-.4-.1-.3.1.1.8 0 1.6-.1 2.4 0 .2.2.3.2.1zm6.5-23.5c.1 2.8.1 5.7.2 8.5 0 .2.2.1.2 0 .2-2.9.2-5.7 0-8.5 0-.2-.4-.2-.4 0zm-.6 10.8c0 .2.3.2.3 0 .4-1.5.3-3.1.1-4.7 0-.3-.4-.3-.4 0 .1 1.6.1 3.1 0 4.7zm-2.2 6.4c.5-.8.9-1.8 1-2.8v.2c0 .2.3.3.4.1.6-1.6.6-3.4.5-5.1 0-.3-.5-.3-.5 0 .1 1.2-.1 2.3-.2 3.4.1-.5.1-1 .1-1.4 0-.3-.5-.3-.5 0-.1 1-.2 2-.4 2.9-.2.8-.6 1.7-.7 2.5-.1.2.2.4.3.2zm-1.4 1.2c.7-1.1.9-2.5 1.1-3.7 0-.3-.4-.4-.4-.1-.2 1.3-.7 2.4-1.1 3.7 0 .2.3.3.4.1zm-1 .6c.5-1.1.6-2.3.9-3.4.1-.3-.4-.5-.5-.1-.3 1.1-.7 2.3-.8 3.5 0 .1.3.2.4 0zM90.3 153c-.8-1.8-1.5-3.6-1.9-5.5-.1-.3-.5-.2-.4.1.4 2 1 3.8 2.1 5.5.1.2.2.1.2-.1zm2.2 2.3c.5.9 1.1 1.7 1.9 2.4.1.1.3 0 .2-.2-1.2-1.7-2.3-3.4-3.1-5.3-.1-.2-.4-.1-.3.1.2.7.5 1.3.8 1.9-.8-1.3-1.6-2.5-2.1-3.9-.1-.2-.4-.1-.3.1.6 1.7 1.4 3.6 2.7 4.9 0 .1.1.1.2 0zm4 4.5c.2.1.3-.1.2-.2-.7-1.1-1.6-2-2.2-3.2-.1-.2-.4-.1-.3.1.5 1.1 1.2 2.5 2.3 3.3zm1.8.7c-.5-.9-1.1-1.8-1.6-2.7-.1-.2-.5 0-.4.2.5.9 1.1 1.9 1.9 2.6 0 0 .1 0 .1-.1zm1.2-.4c-.3-.5-.6-.9-.8-1.5-.1-.2-.4-.1-.3.1.2.6.4 1.1.8 1.6.2 0 .4-.1.3-.2zm-16.4-18.7c.3 1.6.8 3.3 1.8 4.7.1.1.4.1.3-.1-.6-1.5-1.3-3-1.7-4.6-.1-.4-.4-.3-.4 0zm1.3 4.6c-.5-1.6-1.3-3.1-2-4.7-.1-.1-.3 0-.2.1.6 1.6 1.2 3.2 1.9 4.7.1.2.3.1.3-.1zm-.9.4c-1.1-2-2.3-3.9-3.2-6-.1-.1-.3 0-.3.1.9 2.1 1.8 4.2 3.2 6.1.1.2.4 0 .3-.2zm-2.8-1.7c-.5-1.7-1.3-3.3-2.2-4.9-.1-.1-.3 0-.2.1.8 1.6 1.4 3.3 2.2 4.9 0 0 .2 0 .2-.1zm-2.9-2.8c-.4-1.3-.9-2.5-1.4-3.8-.1-.2-.5-.1-.4.1.5 1.3 1 2.6 1.6 3.8.1.1.2 0 .2-.1zM62 108.1c.2-1.1.3-2.2.5-3.3.2-1 .5-1.9.6-2.9 0-.2-.2-.2-.3-.1-.8 1.8-1.2 4.2-1.1 6.2 0 .2.3.3.3.1zm.8 2.8c0 .4-.1.8-.1 1.2.1-1.7.1-3.4.3-5.1 0-.2-.3-.2-.3 0-.2 1.8-.4 3.7-.3 5.5 0 .2.2.2.2 0-.1 1.3-.1 2.7.2 4 0 .1.2.1.2 0 0-1.8-.1-3.6.1-5.5.1-.3-.3-.4-.3-.1zm1.3 10.1c-.2-1.9-.3-3.7-.1-5.5 0-.2-.3-.2-.3 0-.3 1.8-.3 3.8.2 5.6-.1.1.2.1.2-.1zm2 4.5c-.6-2.1-1.2-4.1-1.4-6.4 0-.2-.3-.2-.3 0 0 2.2.2 4.5 1.4 6.5.1.1.3 0 .3-.1zm1.3.8c-.3-.7-.7-1.4-1-2.1-.1-.2-.4-.1-.4.1.2.7.5 1.7 1.1 2.2.1.1.4 0 .3-.2zm1.6 1.1c.1.1.3 0 .3-.2-.3-.8-.9-1.6-1.4-2.3-.1-.2-.5 0-.4.2.5.8.9 1.6 1.5 2.3zm9.1 3.6c-.2-1.1-.5-2.2-.8-3.3-.1-.2-.1-.5-.2-.7-.1-.3-.1-.6-.2-.9 0-.2-.3-.1-.2.1.2 1.6.5 3.4 1.1 4.9.1.1.4.1.3-.1zm.9-1.5c-.3-1.8-.7-3.6-.9-5.5 0-.3-.5-.3-.4 0 .2 1.9.4 3.8 1.1 5.6 0 .1.2.1.2-.1zm.1-2.5c.3 3.3 1.3 6.6 3.2 9.3.1.2.5 0 .3-.2-1.6-3-2.7-5.8-3.2-9.2.1-.1-.3-.1-.3.1zm6.5 13.6c-1-1.9-2.1-3.7-2.9-5.6-.1-.2-.4 0-.3.2.9 1.9 1.8 3.9 3 5.6 0 .1.3 0 .2-.2zm35.1-18c0 .4.1.8.1 1.3.1 1.8.1 3.6.1 5.5 0 .1.2.1.2 0 .5-2.3.3-4.6 0-6.8 0-.2-.4-.2-.4 0zm-.2 9.2c.4-2.2.2-4.4 0-6.6 0-.2-.4-.2-.4 0 .2 2.2 0 4.3.1 6.5 0 .2.3.3.3.1zm-.7-2.7c-.4 1.8-1 3.5-1.5 5.3-.1.2.2.3.3.1.8-1.6 1.3-3.5 1.6-5.3 0-.3-.4-.4-.4-.1zm-5.5 8.7c-.8 1.8-1.7 3.6-2.3 5.4-.1.2.2.3.3.1.9-1.8 1.6-3.6 2.3-5.4.1-.1-.2-.2-.3-.1zm-4.5 7.6 1.2-2.4c.1-.2-.2-.3-.3-.1-.4.8-.7 1.6-1.1 2.4 0 .1.2.1.2.1zm-.5-2.6c-.7 1.9-1.6 3.8-2.6 5.6-.1.2.2.3.3.2 1.2-1.7 2.1-3.6 2.7-5.6.1-.4-.3-.5-.4-.2zM94 151.3c-.7-2.1-1.4-4.2-1.8-6.4 0-.2-.4-.1-.3.1.4 2.2.9 4.4 1.9 6.4-.1.2.2 0 .2-.1zm2.8 3.3c-.9-1.7-1.7-3.3-2.1-5.1-.1-.3-.5-.2-.4.1.4 1.8 1.1 3.7 2.3 5.2.1.2.3 0 .2-.2zm2.6 2.2c-.5-1-1-1.9-1.5-2.9-.1-.3-.6-.1-.4.1.4 1 .9 2.1 1.7 2.9.1.2.2 0 .2-.1zm5.5-4.5c-.2.9-.3 1.8-.4 2.7 0 .1.2.1.2 0 .3-.8.4-1.7.6-2.6.1-.3-.4-.4-.4-.1zm1.5 1.1c0 .8-.2 1.5-.2 2.3 0 .2.3.3.4.1.4-.7.4-1.6.4-2.4 0-.4-.6-.4-.6 0zm-25.2-32.3c4.8 1 9.8-.1 14.4-1.6.2-.1.1-.4-.1-.3-4.8 1-9.3 2-14.3 1.7-.2-.1-.2.2 0 .2zm-3.1 0c1.1-.9 2.2-1.8 3.5-2.4.2-.1.1-.3-.1-.3-1.4.5-2.8 1.3-3.6 2.5-.1.2.1.3.2.2zm27.7-1.6c3.1-.1 6-1.3 9.1-1.2.1 0 .1-.2 0-.2-3.1-.3-6.1.6-9.1 1.2-.2 0-.2.2 0 .2zm18.2 10.7c-.5-3.7-1.1-7.4-1.4-11.1 0-.2-.3-.2-.3 0 .2 3.7.3 7.6 1.3 11.2.1.3.4.2.4-.1zm-2.8 3.2c-.9 2.1-1.2 4.3-2.2 6.3-.1.2.1.4.3.2 1.5-1.9 1.6-4.2 2.4-6.4.1-.3-.4-.4-.5-.1zm-5.7 13.8c1.1-2.3 1.9-4.7 2.5-7.2.1-.3-.4-.5-.5-.1-.6 2.4-1.4 4.8-2.3 7.2-.1.1.2.2.3.1zM78.2 136c-.4-2.2-1.1-4.3-1.8-6.4-.1-.3-.6-.2-.5.1.6 2.2 1.1 4.3 2 6.4.1.2.4.1.3-.1zm.1-1.5c1 2.1 1.9 4.2 3.2 6.2.1.2.5.1.4-.2-.9-2.1-2.2-4.1-3.3-6.2-.1-.1-.4 0-.3.2z" fill="#1b141c" stroke-width="none" opacity="1"></path></g></g></g><g id="svga-group-mustache-single-move" transform="matrix(1,0,0,1,0,0)"><g id="svga-group-mustache-single" transform="matrix(0.7999992000000002,0,0,0.7999992000000002,0,0)"></g></g><g id="svga-group-nose-single-move" transform="matrix(1,0,0,1,0,0)"><g id="svga-group-nose-single"><path id="SvgjsPath10296" d="M105.53 106.38c.26.82 3.73 4.55 3.79 6.57.06 2.02-2.08 4.04-4.74 2.21 0 0-2.46 1.89-4.74 1.64s-3.54-1.83-3.54-1.83-2.15.82-3.98.19c-1.83-.63-2.27-2.84-.95-4.86 1.33-2.02 3.6-5.49 4.1-7.45.52-1.96 7.09-5.62 10.06 3.53z" fill="#f0c7b1" stroke-width="none" opacity="1" transform="translate(0 1)"></path><path id="SvgjsPath10297" d="M105.49 105.94c-.16-.2-.5.06-.36.28.93 1.43 1.95 2.83 2.81 4.31.59 1 1.18 2.25.77 3.46-.67 1.98-2.42 1.87-3.83 1.11.53-.68.84-1.48.77-2.36-.02-.22-.32-.41-.48-.2-1.4 1.76-2.29 3.6-4.89 3.7-2.75.11-4.52-2.12-5.25-4.51-.06-.21-.35-.16-.36.05-.07 1.1.27 2.16.87 3.06-.4.07-.8.15-1.2.17-1.28.08-1.49-.02-2.33-1.09-.89-1.12-.89-1.4-.4-2.65.23-.58.58-1.08.91-1.61 1.08-1.68 2.04-3.39 2.75-5.26 1.43-3.73 2.05-7.86 1.36-11.81-.03-.17-.29-.12-.29.04-.01 3.2-.21 6.36-1.15 9.44-.97 3.19-2.81 5.59-4.34 8.46-.8 1.49-1.13 3.46.23 4.74 1.35 1.28 3.43.87 5.01.27.94 1.02 2.24 1.72 3.61 1.85 1.55.14 3.58-.61 4.83-1.88 1.45 1.61 4.23.86 4.96-1.19 1.09-3.12-2.3-6.24-4-8.38z" fill="#c27b55" stroke-width="none" opacity="1" transform="translate(0 1)"></path><path id="SvgjsPath10298" d="M102.24 108.78c-.89-.83-2.3-1.07-3.3-.3-.36.28-.58.63-.67 1-.17.06-.34.16-.48.3-.76.74-.44 1.9.21 2.59.55.59 1.45.87 2.24.83.97-.05 1.85-.51 2.39-1.33.63-.95.44-2.31-.39-3.09z" fill="#f8d5c3" stroke-width="none" opacity="1" transform="translate(0 1)"></path></g></g><g id="svga-group-hair-front"></g><g id="svga-group-glasses-single-move" transform="matrix(1,0,0,1,0,0)"><g id="svga-group-glasses-single"><path id="SvgjsPath10319" d="M64.27 89.58c-.36.71-.66 1.62-.71 3.2-.05 1.57.12 3.36.62 5.16s.2 3.07 4.87 5.2c4.67 2.13 10.92 3.86 14.93 4.67s6.36-1.85 7.9-3.82c1.54-1.97 4.13-6.54 4.44-10.09.3-3.55-2.34-4.01-4.92-4.67-2.59-.66-9.8-2.03-15.38-1.83s-9.19.46-10.2.81c-1.04.35-1.55 1.37-1.55 1.37z" fill="url(#SvgjsLinearGradient10320)" opacity="1"></path><path id="SvgjsPath10326" d="M85.45 108.08c-.47 0-.97-.05-1.5-.16-3.9-.79-10.16-2.49-14.95-4.68-4.14-1.89-4.44-3.16-4.78-4.63-.05-.21-.1-.42-.16-.65-.46-1.66-.68-3.46-.62-5.19.06-1.71.42-2.63.72-3.25.02-.04.54-1.06 1.59-1.43.97-.34 4.23-.6 10.24-.82 5.88-.21 13.29 1.29 15.42 1.83l.41.1c2.41.6 4.9 1.23 4.61 4.7-.3 3.45-2.79 8.02-4.46 10.16-1.66 2.12-3.6 4.02-6.52 4.02zM64.38 89.63c-.3.59-.64 1.49-.7 3.15-.06 1.71.16 3.48.61 5.12.06.23.11.45.16.66.34 1.47.6 2.62 4.64 4.46 4.78 2.18 11.01 3.87 14.9 4.66 3.66.74 5.9-1.38 7.78-3.77 1.66-2.12 4.12-6.63 4.41-10.03.28-3.26-2-3.83-4.42-4.43l-.41-.1c-2.12-.54-9.49-2.04-15.35-1.82-5.91.21-9.23.48-10.17.81-.95.32-1.44 1.28-1.45 1.29z" fill="#ffffff" stroke-width="none" opacity="1"></path><path id="SvgjsPath10327" d="M135.73 89.58c.36.71.66 1.62.71 3.2.05 1.57-.12 3.36-.62 5.16-.5 1.8-.2 3.07-4.87 5.2-4.67 2.13-10.92 3.86-14.93 4.67s-6.36-1.85-7.9-3.82c-1.54-1.97-4.13-6.54-4.44-10.09-.3-3.55 2.34-4.01 4.92-4.67 2.59-.66 9.8-2.03 15.38-1.83 5.58.2 9.19.46 10.2.81 1.04.35 1.55 1.37 1.55 1.37z" fill="url(#SvgjsLinearGradient10328)" opacity="1"></path><path id="SvgjsPath10334" d="M108.03 104.06c-1.67-2.14-4.17-6.71-4.46-10.16-.3-3.47 2.2-4.09 4.61-4.7l.41-.1c2.13-.54 9.54-2.04 15.42-1.83 6.01.22 9.27.48 10.24.82 1.05.37 1.57 1.39 1.59 1.43.31.62.67 1.54.72 3.25.06 1.74-.16 3.53-.62 5.19-.06.22-.11.44-.16.65-.34 1.47-.63 2.74-4.78 4.63-4.79 2.19-11.05 3.89-14.95 4.68-.53.11-1.03.16-1.5.16-2.92 0-4.86-1.9-6.52-4.02zm27.59-14.43c-.01-.01-.5-.97-1.45-1.31-.93-.33-4.26-.59-10.17-.81-5.86-.21-13.23 1.28-15.35 1.82l-.41.1c-2.42.6-4.7 1.18-4.42 4.43.29 3.4 2.75 7.91 4.41 10.03 1.88 2.4 4.11 4.51 7.78 3.77 3.89-.79 10.12-2.48 14.9-4.66 4.03-1.84 4.3-3 4.64-4.46.05-.21.1-.43.16-.66.46-1.64.67-3.41.61-5.12-.06-1.64-.4-2.53-.7-3.13z" fill="#ffffff" stroke-width="none" opacity="1"></path><path id="SvgjsPath10335" d="M138.84 87.77c-.91-1.32-15.24-1.69-19.7-1.32-7.84.65-14.98 2.98-16.3 3.39-1.32.41-2.23.41-2.23.41h-1.2s-.91 0-2.23-.41c-1.32-.41-8.46-2.74-16.3-3.39-4.46-.37-18.79 0-19.7 1.32s-1.57 5.05-1.24 6.54c.33 1.49 4.25 3.63 4.25 3.63s-.49-2.93-.4-5c.08-2.07.62-3.6 1.7-4.26s5.46-1.08 12.74-.91 13.9 1.74 15.72 2.57c1.82.83 2.23 2.65 1.32 6.37-.91 3.72-3.39 7.28-3.39 7.28s1.66-.17 2.15-.58c.5-.41.66-.66 2.65-4.72 1.99-4.06 2.73-3.89 2.73-3.89h1.2s.74-.17 2.73 3.89c1.99 4.06 2.15 4.3 2.65 4.72.5.41 2.15.58 2.15.58s-2.48-3.56-3.39-7.28c-.91-3.72-.5-5.54 1.32-6.37 1.82-.83 8.44-2.4 15.72-2.57s11.67.25 12.74.91 1.61 2.19 1.7 4.26c.08 2.07-.4 5-.4 5s3.92-2.14 4.25-3.63c.33-1.5-.33-5.22-1.24-6.54z" fill="#26120b" stroke-width="none" opacity="1"></path><path id="SvgjsPath10336" d="M138.83 87.77c-.34-.33-.84-.42-1.29-.54-.46-.1-.93-.18-1.4-.25-.94-.13-1.89-.22-2.84-.3-1.9-.15-3.8-.23-5.7-.29-3.8-.08-7.62-.14-11.39.42-3.77.52-7.49 1.36-11.14 2.42l-2.73.83c-.46.12-.94.21-1.42.25-.49.04-.96.01-1.43.02-.97-.01-1.91-.26-2.82-.56-.91-.28-1.82-.55-2.74-.8-3.66-1-7.39-1.8-11.17-2.25-1.89-.24-3.78-.33-5.68-.34-1.9-.02-3.8.01-5.7.08-1.9.07-3.8.17-5.69.35-.95.09-1.89.2-2.82.38-.46.09-.93.2-1.35.38-.22.09-.34.26-.46.48-.11.21-.21.42-.29.64-.34.88-.56 1.81-.71 2.75-.13.93-.25 1.9-.08 2.82.11.45.43.82.76 1.15.33.33.7.64 1.08.92.76.57 1.56 1.08 2.39 1.54l-.06.05c-.17-1.11-.3-2.23-.37-3.35s-.06-2.25.17-3.36c.22-1.07.71-2.26 1.8-2.74 1.07-.38 2.2-.48 3.32-.6 2.24-.2 4.48-.23 6.73-.23 2.24.01 4.49.06 6.73.28 2.24.21 4.46.53 6.66.97 1.1.23 2.2.48 3.28.79.54.17 1.08.33 1.6.57.52.24.99.62 1.29 1.12.59 1.02.54 2.24.42 3.34-.15 1.12-.41 2.22-.76 3.29-.73 2.14-1.78 4.15-3.02 6.02l-.1-.18c1-.15 2.16-.22 2.64-1.19.53-.88.98-1.83 1.44-2.76.46-.93.91-1.88 1.42-2.8.25-.46.53-.91.83-1.34.15-.22.32-.43.49-.62.21-.18.33-.42.74-.47h-.02 1.2-.02c.42.05.53.29.74.47.18.2.35.41.5.62.3.43.58.88.83 1.34.52.91.96 1.86 1.42 2.8.47.93.91 1.88 1.44 2.76.48.97 1.64 1.04 2.63 1.19l-.11.19c-1.25-1.88-2.3-3.89-3.03-6.02-.36-1.07-.61-2.17-.76-3.29-.13-1.11-.18-2.32.41-3.36.31-.5.78-.89 1.31-1.13.52-.24 1.06-.4 1.6-.57 1.08-.32 2.18-.57 3.28-.8 2.2-.44 4.43-.76 6.67-.96 2.24-.22 4.49-.26 6.73-.27 2.24 0 4.49.04 6.73.24 1.11.12 2.24.22 3.32.6 1.1.48 1.58 1.67 1.81 2.74.43 2.23.09 4.5-.22 6.71l-.06-.04c.9-.51 1.78-1.06 2.6-1.69.41-.32.8-.66 1.14-1.04.36-.38.56-.87.57-1.39.06-1.03-.07-2.07-.28-3.08-.26-1-.52-2.03-1.06-2.91zm.02-.01c.56.89.82 1.91 1.04 2.92.21 1.02.34 2.05.29 3.1 0 .52-.22 1.04-.58 1.42-.34.39-.74.73-1.15 1.06-.82.64-1.7 1.2-2.6 1.71l-.07.03.01-.08c.3-2.21.62-4.47.19-6.67-.22-1.06-.71-2.22-1.75-2.66-1.04-.37-2.18-.47-3.29-.58-2.23-.19-4.47-.21-6.71-.2-2.24.02-4.48.08-6.71.31-2.23.22-4.45.54-6.64.99-1.09.23-2.18.48-3.26.8-1.05.33-2.2.64-2.76 1.59-.55.94-.51 2.11-.38 3.2.15 1.1.4 2.19.75 3.25.72 2.11 1.77 4.11 3 5.96l.14.22-.25-.03c-.53-.06-1.04-.14-1.56-.3-.53-.12-1-.55-1.25-1-.55-.91-.99-1.85-1.46-2.78-.47-.94-.91-1.88-1.41-2.79-.25-.45-.52-.9-.82-1.32-.15-.21-.31-.41-.48-.6-.15-.17-.41-.38-.52-.4h-1.26c-.11.02-.37.23-.52.4-.17.19-.33.39-.48.6-.3.42-.57.86-.82 1.32-.51.9-.95 1.85-1.42 2.78-.47.93-.91 1.88-1.46 2.78-.25.45-.72.88-1.25 1-.51.15-1.03.24-1.56.3l-.24.03.14-.2c1.23-1.85 2.28-3.85 3.01-5.96.35-1.06.61-2.15.76-3.25.13-1.09.17-2.26-.38-3.22-.57-.97-1.73-1.29-2.78-1.61-1.07-.31-2.16-.57-3.26-.8-2.19-.45-4.41-.77-6.64-.99-2.23-.23-4.47-.28-6.71-.3-2.24-.01-4.48.02-6.72.21-1.11.11-2.24.21-3.29.58-1.04.44-1.53 1.6-1.75 2.66-.44 2.2-.11 4.47.21 6.67l.01.09-.08-.04c-.83-.46-1.64-.98-2.41-1.54-.38-.29-.75-.59-1.09-.93-.33-.34-.67-.72-.79-1.2-.17-.96-.06-1.92.07-2.86.15-.94.36-1.88.71-2.77.09-.22.19-.44.3-.66.07-.1.11-.21.2-.31.09-.11.2-.16.31-.22.45-.2.92-.31 1.38-.4.94-.18 1.89-.29 2.83-.39 1.9-.19 3.8-.29 5.7-.37 1.9-.07 3.81-.11 5.71-.09 1.9 0 3.81.08 5.71.32 3.79.44 7.53 1.21 11.2 2.24.92.26 1.83.53 2.74.81.9.3 1.82.54 2.76.56.47-.01.96.02 1.42-.01.47-.04.93-.13 1.39-.24l2.73-.81c3.66-1.05 7.39-1.87 11.17-2.38 3.78-.55 7.6-.47 11.4-.38 1.9.06 3.8.15 5.7.31.95.08 1.9.17 2.84.31.47.07.94.15 1.41.25.47.13.98.21 1.33.56z" fill="#070201" stroke-width="none" opacity="1"></path></g></g></g></g></g><rect id="svga-credit-rect" width="200" height="15" x="0" y="185" fill="#ecf0f1" opacity="0.5" style="display: none;"></rect><text id="svga-credit-text" font-family="Avenir Next, Roboto, Helvetica, Arial, sans-serif" font-size="10px" text-anchor="start" font-weight="400" size="10px" anchor="start" weight="400" fill="#333333" x="33.311859130859375" y="182.65120244026184" style="display: none;"><tspan id="SvgjsTspan10069" dy="13" x="33.311859130859375">Created on AvatarMaker.com</tspan></text></g><defs id="SvgjsDefs10016"><linearGradient id="SvgjsLinearGradient10320" x1="79.9394" y1="87.3745" x2="79.9394" y2="107.9537" gradientUnits="userSpaceOnUse" class="svga-on-canvas-glasses-gradient-single-0-null"><stop id="SvgjsStop10321" stop-opacity="1" stop-color="#ffba38" offset="0.004166667" ></stop><stop id="SvgjsStop10322" stop-opacity="0.8314" stop-color="#f5b232" offset="0.1721" ></stop><stop id="SvgjsStop10323" stop-opacity="0.541" stop-color="#d99d24" offset="0.4612" ></stop><stop id="SvgjsStop10324" stop-opacity="0.1664" stop-color="#ac7b0c" offset="0.8343" ></stop><stop id="SvgjsStop10325" stop-opacity="0" stop-color="#966a00" offset="1" ></stop></linearGradient><linearGradient id="SvgjsLinearGradient10328" x1="-20.0606" y1="87.3745" x2="-20.0606" y2="107.9537" gradientTransform="matrix(-1 0 0 1 100 0)" gradientUnits="userSpaceOnUse" class="svga-on-canvas-glasses-gradient-single-2-null"><stop id="SvgjsStop10329" stop-opacity="1" stop-color="#ffba38" offset="0.004166667" ></stop><stop id="SvgjsStop10330" stop-opacity="0.8314" stop-color="#f5b232" offset="0.1721" ></stop><stop id="SvgjsStop10331" stop-opacity="0.541" stop-color="#d99d24" offset="0.4612" ></stop><stop id="SvgjsStop10332" stop-opacity="0.1664" stop-color="#ac7b0c" offset="0.8343" ></stop><stop id="SvgjsStop10333" stop-opacity="0" stop-color="#966a00" offset="1" ></stop></linearGradient></defs></svg>